<svg version="1.2" xmlns="http://www.w3.org/2000/svg" viewBox="0 0 4000 2400" width="4000" height="2400">
	<style>
		.s0 { fill: #f2f2f2 } 
		.s1 { fill: #343c54 } 
		.s2 { fill: #4a5578 } 
		.s3 { fill: #bac4d9 } 
	</style>
	<g id="Layer 2">
		<g id="&lt;Group&gt;">
			<path id="&lt;Path&gt;" class="s0" d="m4000 2400h-4000v-2400h4000z"/>
		</g>
	</g>
	<g id="Layer 4">
		<g id="&lt;Group&gt;">
		</g>
		<g id="&lt;Group&gt;">
			<g id="&lt;Group&gt;">
				<g id="&lt;Group&gt;">
					<g id="&lt;Group&gt;">
						<path id="&lt;Compound Path&gt;" class="s1" d="m2019.22 567.62c-12.63 0-24.31-15.75-32.9-44.36-8.41-27.99-13.04-65.18-13.04-104.71 0-39.53 4.63-76.71 13.04-104.7 8.59-28.61 20.27-44.37 32.9-44.37 12.62 0 24.3 15.76 32.89 44.37 8.41 27.99 13.04 65.17 13.04 104.7 0 39.53-4.63 76.72-13.04 104.71-8.59 28.61-20.27 44.36-32.89 44.36zm0-294.8c-10.87 0-21.69 15.31-29.7 41.99-8.32 27.68-12.9 64.53-12.9 103.74 0 39.22 4.58 76.06 12.9 103.75 8.01 26.68 18.83 41.98 29.7 41.98 10.86 0 21.68-15.3 29.69-41.98 8.32-27.69 12.9-64.53 12.9-103.75 0-39.21-4.58-76.06-12.9-103.74-8.01-26.68-18.83-41.99-29.69-41.99z"/>
					</g>
				</g>
			</g>
			<g id="&lt;Group&gt;">
				<g id="&lt;Group&gt;">
					<g id="&lt;Group&gt;">
						<path id="&lt;Compound Path&gt;" class="s1" d="m2122.2 506.1c-8.47 0-18.78-1.57-30.68-4.73-28.25-7.49-62.35-23.02-96.02-43.73-33.68-20.7-62.94-44.12-82.38-65.94-19.87-22.3-27.17-40.5-20.56-51.25 6.61-10.76 26.15-12.46 55.02-4.8 28.25 7.5 62.35 23.03 96.03 43.73 33.67 20.7 62.93 44.12 82.37 65.94 19.87 22.3 27.18 40.51 20.56 51.26-3.88 6.32-12.24 9.52-24.34 9.52zm-205.34-171.83c-10.77 0-18.22 2.66-21.46 7.92-5.68 9.26 1.68 26.49 20.22 47.29 19.23 21.58 48.22 44.78 81.63 65.32 33.4 20.53 67.19 35.93 95.13 43.35 26.92 7.14 45.63 5.93 51.32-3.32 5.69-9.25-1.68-26.49-20.21-47.28-19.24-21.59-48.23-44.78-81.63-65.32-33.41-20.54-67.2-35.93-95.14-43.35-11.61-3.08-21.69-4.61-29.86-4.61z"/>
					</g>
				</g>
			</g>
			<g id="&lt;Group&gt;">
				<g id="&lt;Group&gt;">
					<g id="&lt;Group&gt;">
						<path id="&lt;Compound Path&gt;" class="s1" d="m1916.38 504.32c-12.78 0-21.53-3.34-25.43-9.96-6.42-10.87 1.21-28.94 21.47-50.88 19.83-21.47 49.5-44.37 83.54-64.47 34.03-20.1 68.41-35.02 96.78-42.01 29.01-7.15 48.51-5.1 54.93 5.77 6.42 10.87-1.2 28.94-21.47 50.88-19.83 21.47-49.49 44.37-83.53 64.47-34.04 20.1-68.42 35.02-96.79 42.01-11.36 2.8-21.27 4.19-29.5 4.19zm205.9-168.17c-7.95 0-17.64 1.35-28.74 4.09-28.07 6.92-62.12 21.71-95.89 41.65-33.76 19.94-63.16 42.62-82.77 63.86-18.9 20.46-26.58 37.56-21.05 46.91 5.52 9.36 24.2 10.9 51.25 4.23 28.07-6.92 62.12-21.71 95.89-41.65l0.85 1.44-0.85-1.44c33.76-19.94 63.16-42.62 82.78-63.86 18.9-20.46 26.57-37.56 21.05-46.91-3.26-5.52-11.1-8.32-22.52-8.32z"/>
					</g>
				</g>
			</g>
			<g id="&lt;Group&gt;">
				<g id="&lt;Group&gt;">
					<path id="&lt;Path&gt;" class="s2" d="m2034.14 418.5c0 6.95-5.63 12.58-12.57 12.58-6.95 0-12.58-5.63-12.58-12.58 0-6.94 5.63-12.57 12.58-12.57 6.94 0 12.57 5.63 12.57 12.57z"/>
				</g>
				<g id="&lt;Group&gt;">
					<g id="&lt;Group&gt;">
						<path id="&lt;Compound Path&gt;" class="s1" d="m2019.17 432.75c-7.86 0-14.25-6.39-14.25-14.25 0-7.85 6.39-14.24 14.25-14.24 7.85 0 14.24 6.39 14.24 14.24 0 7.86-6.39 14.25-14.24 14.25zm0-25.15c-6.02 0-10.91 4.89-10.91 10.9 0 6.02 4.89 10.91 10.91 10.91 6.01 0 10.9-4.89 10.9-10.91 0-6.01-4.89-10.9-10.9-10.9z"/>
					</g>
				</g>
			</g>
			<g id="&lt;Group&gt;">
				<g id="&lt;Group&gt;">
					<path id="&lt;Path&gt;" class="s2" d="m1952.48 333.14c1.62 6.75-2.55 13.53-9.31 15.14-6.75 1.62-13.53-2.55-15.15-9.31-1.61-6.75 2.56-13.53 9.32-15.15 6.75-1.61 13.53 2.56 15.14 9.32z"/>
				</g>
				<g id="&lt;Group&gt;">
					<g id="&lt;Group&gt;">
						<path id="&lt;Compound Path&gt;" class="s1" d="m1937.83 350.3c-2.61 0-5.16-0.71-7.44-2.11-3.24-1.99-5.51-5.13-6.39-8.83-0.88-3.7-0.27-7.52 1.72-10.76 1.99-3.25 5.13-5.52 8.83-6.4 3.7-0.88 7.52-0.27 10.76 1.72 3.24 1.99 5.52 5.13 6.4 8.83 0.88 3.7 0.27 7.52-1.72 10.76-1.99 3.25-5.13 5.52-8.83 6.4q-1.66 0.4-3.33 0.39zm0.04-25.15q-1.27 0-2.55 0.3c-2.83 0.68-5.23 2.41-6.75 4.9-1.53 2.48-2 5.4-1.32 8.23 0.67 2.84 2.41 5.24 4.89 6.76 2.49 1.53 5.41 2 8.24 1.32 2.84-0.68 5.24-2.41 6.76-4.9 1.53-2.48 2-5.4 1.32-8.24-0.68-2.83-2.41-5.23-4.9-6.75-1.74-1.07-3.69-1.62-5.69-1.62z"/>
					</g>
				</g>
			</g>
			<g id="&lt;Group&gt;">
				<g id="&lt;Group&gt;">
					<path id="&lt;Path&gt;" class="s2" d="m1957.14 502.15c-1.73 6.73-8.58 10.77-15.31 9.04-6.72-1.73-10.77-8.58-9.04-15.31 1.73-6.72 8.59-10.77 15.31-9.04 6.73 1.73 10.77 8.59 9.04 15.31z"/>
				</g>
				<g id="&lt;Group&gt;">
					<g id="&lt;Group&gt;">
						<path id="&lt;Compound Path&gt;" class="s1" d="m1942.57 513.26q-1.77 0.01-3.55-0.45c-7.61-1.96-12.21-9.74-10.25-17.35 0.95-3.68 3.28-6.78 6.55-8.71 3.28-1.93 7.11-2.48 10.8-1.53 3.68 0.95 6.78 3.28 8.71 6.55 1.94 3.28 2.48 7.11 1.53 10.8-1.65 6.42-7.45 10.69-13.79 10.69zm-0.02-25.15c-1.93 0-3.83 0.51-5.53 1.52-2.5 1.48-4.29 3.85-5.01 6.67-0.73 2.82-0.31 5.75 1.17 8.26 1.48 2.51 3.85 4.29 6.67 5.02 2.82 0.72 5.75 0.31 8.26-1.18 2.51-1.48 4.29-3.84 5.02-6.67 0.72-2.82 0.31-5.75-1.17-8.26-1.49-2.51-3.85-4.29-6.67-5.01q-1.37-0.35-2.74-0.35z"/>
					</g>
				</g>
			</g>
			<g id="&lt;Group&gt;">
				<g id="&lt;Group&gt;">
					<path id="&lt;Path&gt;" class="s2" d="m2132.18 438.03c0 6.94-5.63 12.57-12.58 12.57-6.94 0-12.57-5.63-12.57-12.57 0-6.95 5.63-12.58 12.57-12.58 6.95 0 12.58 5.63 12.58 12.58z"/>
				</g>
				<g id="&lt;Group&gt;">
					<g id="&lt;Group&gt;">
						<path id="&lt;Compound Path&gt;" class="s1" d="m2117.2 452.27c-7.85 0-14.24-6.39-14.24-14.24 0-7.86 6.39-14.25 14.24-14.25 7.86 0 14.25 6.39 14.25 14.25 0 7.85-6.39 14.24-14.25 14.24zm0-25.15c-6.01 0-10.9 4.9-10.9 10.91 0 6.01 4.89 10.9 10.9 10.9 6.01 0 10.91-4.89 10.91-10.9 0-6.01-4.9-10.91-10.91-10.91z"/>
					</g>
				</g>
			</g>
		</g>
		<g id="&lt;Group&gt;">
			<g id="&lt;Group&gt;">
				<g id="&lt;Group&gt;">
					<g id="&lt;Group&gt;">
						<g id="&lt;Group&gt;">
							<path id="&lt;Path&gt;" class="s0" d="m717.07 408.28v278.81z"/>
						</g>
						<g id="&lt;Group&gt;">
							<path id="&lt;Path&gt;" class="s1" d="m714.67 688.76c-0.92 0-1.67-0.75-1.67-1.67v-278.81c0-0.92 0.75-1.67 1.67-1.67 0.93 0 1.67 0.75 1.67 1.67v278.81c0 0.92-0.74 1.67-1.67 1.67z"/>
						</g>
					</g>
					<g id="&lt;Group&gt;">
						<g id="&lt;Group&gt;">
							<path id="&lt;Path&gt;" class="s1" d="m727.72 423.01c-0.42 0-0.85-0.17-1.18-0.49l-11.87-11.87-11.78 11.77c-0.65 0.65-1.71 0.65-2.36 0-0.65-0.65-0.65-1.71 0-2.36l12.96-12.96c0.65-0.65 1.71-0.65 2.36 0l13.05 13.05c0.66 0.66 0.66 1.71 0 2.37-0.32 0.32-0.75 0.49-1.18 0.49z"/>
						</g>
					</g>
				</g>
				<g id="&lt;Group&gt;">
					<g id="&lt;Group&gt;">
						<g id="&lt;Group&gt;">
							<path id="&lt;Path&gt;" class="s0" d="m995.88 687.1h-278.81z"/>
						</g>
						<g id="&lt;Group&gt;">
							<path id="&lt;Path&gt;" class="s1" d="m993.48 688.77h-278.81c-0.92 0-1.67-0.75-1.67-1.67 0-0.93 0.75-1.68 1.67-1.68h278.81c0.92 0 1.67 0.75 1.67 1.68 0 0.92-0.75 1.67-1.67 1.67z"/>
						</g>
					</g>
					<g id="&lt;Group&gt;">
						<g id="&lt;Group&gt;">
							<path id="&lt;Path&gt;" class="s1" d="m980.42 701.82c-0.42 0-0.85-0.17-1.18-0.49-0.65-0.65-0.65-1.71 0-2.37l11.88-11.87-11.78-11.77c-0.65-0.66-0.65-1.71 0-2.37 0.65-0.65 1.71-0.65 2.36 0l12.96 12.96c0.31 0.32 0.49 0.74 0.49 1.18 0 0.45-0.18 0.87-0.49 1.18l-13.05 13.06c-0.33 0.32-0.76 0.49-1.19 0.49z"/>
						</g>
					</g>
				</g>
			</g>
			<g id="&lt;Group&gt;">
				<g id="&lt;Group&gt;">
					<path id="&lt;Path&gt;" class="s1" d="m943 648.95c-26.09 0-51.4-5.11-75.22-15.19-23.02-9.73-43.68-23.67-61.43-41.41-17.75-17.75-31.68-38.42-41.41-61.43-10.08-23.83-15.19-49.13-15.19-75.22 0-0.93 0.75-1.67 1.67-1.67 0.92 0 1.67 0.74 1.67 1.67 0 104.71 85.19 189.91 189.91 189.91 0.92 0 1.67 0.74 1.67 1.67 0 0.92-0.75 1.67-1.67 1.67z"/>
				</g>
			</g>
		</g>
		<g id="&lt;Group&gt;">
			<g id="&lt;Group&gt;">
				<g id="&lt;Group&gt;">
					<path id="&lt;Path&gt;" class="s3" d="m1893.51 2053.18h-288.76c0-6.84 2.81-13.08 7.32-17.59 4.52-4.53 10.73-7.32 17.59-7.32h238.94c13.69 0 24.91 11.21 24.91 24.91z"/>
				</g>
				<g id="&lt;Group&gt;">
					<g id="&lt;Group&gt;">
						<path id="&lt;Compound Path&gt;" class="s1" d="m1891.11 2054.85h-288.76c-0.92 0-1.67-0.75-1.67-1.67 0-7.07 2.77-13.73 7.81-18.77 5.02-5.04 11.69-7.81 18.77-7.81h238.94c14.65 0 26.58 11.92 26.58 26.58 0 0.92-0.75 1.67-1.67 1.67zm-287.03-3.34h285.3c-0.86-12.04-10.93-21.57-23.18-21.57h-238.94c-6.19 0-12.01 2.42-16.4 6.83-4.01 4.01-6.38 9.19-6.78 14.74z"/>
					</g>
				</g>
			</g>
			<g id="&lt;Group&gt;">
				<g id="&lt;Group&gt;">
					<path id="&lt;Path&gt;" class="s1" d="m1863 2029.94c-0.92 0-1.67-0.75-1.67-1.67v-200.77c0-12.68-10.32-23-23-23h-183.2c-12.69 0-23 10.32-23 23v200.77c0 0.92-0.75 1.67-1.67 1.67-0.93 0-1.67-0.75-1.67-1.67v-200.77c0-14.52 11.81-26.34 26.34-26.34h183.2c14.52 0 26.34 11.82 26.34 26.34v200.77c0 0.92-0.75 1.67-1.67 1.67z"/>
				</g>
			</g>
			<g id="&lt;Group&gt;">
				<g id="&lt;Group&gt;">
					<g id="&lt;Group&gt;">
						<path id="&lt;Path&gt;" class="s2" d="m1685.84 1984.11c0 9.38-7.6 16.99-16.98 16.99-9.38 0-16.99-7.61-16.99-16.99 0-9.38 7.61-16.98 16.99-16.98 9.38 0 16.98 7.6 16.98 16.98z"/>
					</g>
					<g id="&lt;Group&gt;">
						<g id="&lt;Group&gt;">
							<path id="&lt;Compound Path&gt;" class="s1" d="m1666.46 2002.77c-10.29 0-18.66-8.37-18.66-18.66 0-10.28 8.37-18.65 18.66-18.65 10.28 0 18.65 8.37 18.65 18.65 0 10.29-8.37 18.66-18.65 18.66zm0-33.97c-8.45 0-15.32 6.87-15.32 15.31 0 8.45 6.87 15.32 15.32 15.32 8.44 0 15.31-6.87 15.31-15.32 0-8.44-6.87-15.31-15.31-15.31z"/>
						</g>
					</g>
				</g>
				<g id="&lt;Group&gt;">
					<g id="&lt;Group&gt;">
						<path id="&lt;Path&gt;" class="s1" d="m1666.46 1968.8c-0.93 0-1.67-0.75-1.67-1.67v-164.3c0-0.92 0.74-1.67 1.67-1.67 0.92 0 1.67 0.75 1.67 1.67v164.3c0 0.92-0.75 1.67-1.67 1.67z"/>
					</g>
				</g>
			</g>
			<g id="&lt;Group&gt;">
				<g id="&lt;Group&gt;">
					<g id="&lt;Group&gt;">
						<path id="&lt;Path&gt;" class="s2" d="m1731.28 1984.11c0 9.38-7.61 16.99-16.99 16.99-9.38 0-16.98-7.61-16.98-16.99 0-9.38 7.6-16.98 16.98-16.98 9.38 0 16.99 7.6 16.99 16.98z"/>
					</g>
					<g id="&lt;Group&gt;">
						<g id="&lt;Group&gt;">
							<path id="&lt;Compound Path&gt;" class="s1" d="m1711.89 2002.77c-10.28 0-18.65-8.37-18.65-18.66 0-10.28 8.37-18.65 18.65-18.65 10.29 0 18.66 8.37 18.66 18.65 0 10.29-8.37 18.66-18.66 18.66zm0-33.97c-8.44 0-15.31 6.87-15.31 15.31 0 8.45 6.87 15.32 15.31 15.32 8.45 0 15.31-6.87 15.31-15.32 0-8.44-6.86-15.31-15.31-15.31z"/>
						</g>
					</g>
				</g>
				<g id="&lt;Group&gt;">
					<g id="&lt;Group&gt;">
						<path id="&lt;Path&gt;" class="s1" d="m1711.89 1968.8c-0.92 0-1.67-0.75-1.67-1.67v-164.3c0-0.92 0.75-1.67 1.67-1.67 0.93 0 1.67 0.75 1.67 1.67v164.3c0 0.92-0.74 1.67-1.67 1.67z"/>
					</g>
				</g>
			</g>
			<g id="&lt;Group&gt;">
				<g id="&lt;Group&gt;">
					<g id="&lt;Group&gt;">
						<path id="&lt;Path&gt;" class="s2" d="m1776.71 1984.11c0 9.38-7.6 16.99-16.98 16.99-9.38 0-16.99-7.61-16.99-16.99 0-9.38 7.61-16.98 16.99-16.98 9.38 0 16.98 7.6 16.98 16.98z"/>
					</g>
					<g id="&lt;Group&gt;">
						<g id="&lt;Group&gt;">
							<path id="&lt;Compound Path&gt;" class="s1" d="m1757.33 2002.77c-10.29 0-18.66-8.37-18.66-18.66 0-10.28 8.37-18.65 18.66-18.65 10.28 0 18.65 8.37 18.65 18.65 0 10.29-8.37 18.66-18.65 18.66zm0-33.97c-8.45 0-15.31 6.87-15.31 15.31 0 8.45 6.86 15.32 15.31 15.32 8.44 0 15.31-6.87 15.31-15.32 0-8.44-6.87-15.31-15.31-15.31z"/>
						</g>
					</g>
				</g>
				<g id="&lt;Group&gt;">
					<g id="&lt;Group&gt;">
						<path id="&lt;Path&gt;" class="s1" d="m1757.33 1968.8c-0.92 0-1.67-0.75-1.67-1.67v-164.3c0-0.92 0.75-1.67 1.67-1.67 0.92 0 1.67 0.75 1.67 1.67v164.3c0 0.92-0.75 1.67-1.67 1.67z"/>
					</g>
				</g>
			</g>
			<g id="&lt;Group&gt;">
				<g id="&lt;Group&gt;">
					<g id="&lt;Group&gt;">
						<path id="&lt;Path&gt;" class="s2" d="m1847.27 1964.12c0 9.38-7.6 16.99-16.98 16.99-9.38 0-16.99-7.61-16.99-16.99 0-9.38 7.61-16.98 16.99-16.98 9.38 0 16.98 7.6 16.98 16.98z"/>
					</g>
					<g id="&lt;Group&gt;">
						<g id="&lt;Group&gt;">
							<path id="&lt;Compound Path&gt;" class="s1" d="m1827.89 1982.78c-10.29 0-18.66-8.37-18.66-18.66 0-10.28 8.37-18.65 18.66-18.65 10.28 0 18.65 8.37 18.65 18.65 0 10.29-8.37 18.66-18.65 18.66zm0-33.97c-8.45 0-15.32 6.87-15.32 15.31 0 8.45 6.87 15.32 15.32 15.32 8.44 0 15.31-6.87 15.31-15.32 0-8.44-6.87-15.31-15.31-15.31z"/>
						</g>
					</g>
				</g>
				<g id="&lt;Group&gt;">
					<g id="&lt;Group&gt;">
						<path id="&lt;Path&gt;" class="s1" d="m1827.88 1948.81c-0.76 0-1.45-0.53-1.63-1.31l-31.78-144.31c-0.2-0.9 0.37-1.79 1.27-1.99 0.9-0.2 1.79 0.37 1.99 1.27l31.79 144.31c0.2 0.9-0.37 1.79-1.27 1.99q-0.19 0.04-0.37 0.04z"/>
					</g>
				</g>
			</g>
		</g>
		<g id="&lt;Group&gt;">
			<g id="&lt;Group&gt;">
				<g id="&lt;Group&gt;">
					<g id="&lt;Group&gt;">
						<g id="&lt;Group&gt;">
							<path id="&lt;Compound Path&gt;" class="s3" d="m1487.8 543.71v114.65q-0.01 27.66-11.15 40.6-11.14 12.93-35.87 12.93-25.54 0-36.61-12.85-11.06-12.86-11.06-40.35v-114.98h-50.27v122.62q0 40.85 25.38 64.35 25.37 23.51 71.26 23.51 30.41 0 52.71-10.58 22.28-10.56 34.08-30.42 11.8-19.85 11.8-46.2v-123.28z"/>
						</g>
					</g>
					<g id="&lt;Group&gt;">
						<g id="&lt;Group&gt;">
							<path id="&lt;Compound Path&gt;" class="s1" d="m1437.08 755.86c-30.88 0-55.24-8.06-72.39-23.95-17.2-15.92-25.92-37.99-25.92-65.58v-122.62c0-0.92 0.75-1.67 1.67-1.67h50.27c0.92 0 1.67 0.75 1.67 1.67v114.98c0 17.83 3.58 31.04 10.65 39.26 7.02 8.14 18.91 12.27 35.35 12.27 15.9 0 27.54-4.16 34.6-12.35 7.13-8.28 10.75-21.58 10.75-39.51v-114.65c0-0.92 0.75-1.67 1.67-1.67h50.27c0.92 0 1.67 0.75 1.67 1.67v123.28c0 17.79-4.05 33.63-12.03 47.05-8.01 13.48-19.72 23.93-34.8 31.08-15.02 7.12-32.99 10.74-53.43 10.74zm-94.97-210.48v120.95c0 26.63 8.36 47.86 24.85 63.13 16.51 15.3 40.11 23.06 70.12 23.06 19.94 0 37.43-3.51 52-10.42 14.47-6.86 25.69-16.87 33.35-29.76 7.68-12.91 11.57-28.17 11.57-45.35v-121.61h-46.93v112.98c0 18.76-3.89 32.78-11.56 41.69-7.72 8.96-20.22 13.51-37.13 13.51-17.46 0-30.2-4.52-37.88-13.43-7.61-8.85-11.46-22.79-11.46-41.44v-113.31z"/>
						</g>
					</g>
				</g>
			</g>
			<g id="&lt;Group&gt;">
				<g id="&lt;Group&gt;">
					<path id="&lt;Path&gt;" class="s2" d="m1538.07 589.96v77.03q0 26.35-11.8 46.2-11.8 19.86-34.08 30.42-22.3 10.58-52.71 10.58-45.89 0-71.26-23.51-25.38-23.5-25.38-64.35v-76.37h50.27v68.73q0 27.49 11.06 40.35 11.07 12.85 36.61 12.85 24.73 0 35.87-12.93 11.14-12.94 11.15-40.6v-68.4z"/>
				</g>
				<g id="&lt;Group&gt;">
					<g id="&lt;Group&gt;">
						<path id="&lt;Compound Path&gt;" class="s1" d="m1437.08 755.86c-30.88 0-55.24-8.06-72.39-23.95-17.2-15.92-25.92-37.99-25.92-65.58v-76.37c0-0.93 0.75-1.67 1.67-1.67h50.27c0.92 0 1.67 0.74 1.67 1.67v68.73c0 17.83 3.58 31.04 10.65 39.26 7.02 8.14 18.91 12.27 35.35 12.27 15.9 0 27.54-4.16 34.6-12.35 7.13-8.28 10.75-21.58 10.75-39.51v-68.4c0-0.93 0.75-1.67 1.67-1.67h50.27c0.92 0 1.67 0.74 1.67 1.67v77.03c0 17.79-4.05 33.63-12.03 47.05-8.01 13.48-19.72 23.93-34.8 31.08-15.02 7.12-32.99 10.74-53.43 10.74zm-94.97-164.23v74.7c0 26.63 8.36 47.86 24.85 63.13 16.51 15.3 40.11 23.06 70.12 23.06 19.94 0 37.43-3.51 52-10.42 14.47-6.86 25.69-16.87 33.35-29.76 7.68-12.91 11.57-28.16 11.57-45.35v-75.36h-46.93v66.73c0 18.76-3.89 32.78-11.56 41.69-7.72 8.96-20.22 13.51-37.13 13.51-17.46 0-30.2-4.52-37.88-13.43-7.61-8.85-11.46-22.79-11.46-41.44v-67.06z"/>
					</g>
				</g>
			</g>
			<g id="&lt;Group&gt;">
				<g id="&lt;Group&gt;">
					<path id="&lt;Path&gt;" class="s2" d="m1357.27 565.73h21.71z"/>
				</g>
				<g id="&lt;Group&gt;">
					<path id="&lt;Path&gt;" class="s1" d="m1376.58 567.4h-21.71c-0.92 0-1.67-0.75-1.67-1.67 0-0.92 0.75-1.67 1.67-1.67h21.71c0.92 0 1.67 0.75 1.67 1.67 0 0.92-0.75 1.67-1.67 1.67z"/>
				</g>
			</g>
			<g id="&lt;Group&gt;">
				<g id="&lt;Group&gt;">
					<path id="&lt;Path&gt;" class="s2" d="m1502.91 565.73h21.71z"/>
				</g>
				<g id="&lt;Group&gt;">
					<path id="&lt;Path&gt;" class="s1" d="m1522.22 567.4h-21.71c-0.92 0-1.67-0.75-1.67-1.67 0-0.92 0.75-1.67 1.67-1.67h21.71c0.92 0 1.67 0.75 1.67 1.67 0 0.92-0.75 1.67-1.67 1.67z"/>
				</g>
			</g>
			<g id="&lt;Group&gt;">
				<g id="&lt;Group&gt;">
					<path id="&lt;Path&gt;" class="s2" d="m1513.77 576.58v-21.7z"/>
				</g>
				<g id="&lt;Group&gt;">
					<path id="&lt;Path&gt;" class="s1" d="m1511.37 578.25c-0.93 0-1.67-0.74-1.67-1.67v-21.7c0-0.93 0.74-1.68 1.67-1.68 0.92 0 1.67 0.75 1.67 1.68v21.7c0 0.93-0.75 1.67-1.67 1.67z"/>
				</g>
			</g>
		</g>
		<g id="&lt;Group&gt;">
			<g id="&lt;Group&gt;">
				<g id="&lt;Group&gt;">
					<g id="&lt;Group&gt;">
						<path id="&lt;Path&gt;" class="s2" d="m3344.91 1157.53c0 30.88-25.03 55.92-55.91 55.92-30.88 0-55.92-25.04-55.92-55.92 0-30.88 25.04-55.92 55.92-55.92 30.88 0 55.91 25.04 55.91 55.92z"/>
					</g>
					<g id="&lt;Group&gt;">
						<g id="&lt;Group&gt;">
							<path id="&lt;Compound Path&gt;" class="s1" d="m3286.6 1215.12c-31.76 0-57.59-25.84-57.59-57.59 0-31.75 25.83-57.59 57.59-57.59 31.75 0 57.58 25.84 57.58 57.59 0 31.75-25.83 57.59-57.58 57.59zm0-111.84c-29.91 0-54.25 24.34-54.25 54.25 0 29.91 24.34 54.24 54.25 54.24 29.91 0 54.24-24.33 54.24-54.24 0-29.91-24.33-54.25-54.24-54.25z"/>
						</g>
					</g>
				</g>
				<g id="&lt;Group&gt;">
					<g id="&lt;Group&gt;">
						<path id="&lt;Path&gt;" class="s0" d="m3300.66 1157.53c0 6.44-5.22 11.67-11.66 11.67-6.45 0-11.67-5.23-11.67-11.67 0-6.44 5.22-11.67 11.67-11.67 6.44 0 11.66 5.23 11.66 11.67z"/>
					</g>
					<g id="&lt;Group&gt;">
						<g id="&lt;Group&gt;">
							<path id="&lt;Compound Path&gt;" class="s1" d="m3286.6 1170.87c-7.36 0-13.34-5.99-13.34-13.34 0-7.36 5.98-13.34 13.34-13.34 7.35 0 13.33 5.98 13.33 13.34 0 7.35-5.98 13.34-13.33 13.34zm0-23.34c-5.51 0-10 4.49-10 10 0 5.51 4.49 9.99 10 9.99 5.51 0 9.99-4.48 9.99-9.99 0-5.51-4.48-10-9.99-10z"/>
						</g>
					</g>
				</g>
			</g>
			<g id="&lt;Group&gt;">
				<g id="&lt;Group&gt;">
					<g id="&lt;Group&gt;">
						<path id="&lt;Path&gt;" class="s2" d="m3456.75 998.53c0 30.88-25.04 55.92-55.92 55.92-30.88 0-55.92-25.04-55.92-55.92 0-30.88 25.04-55.91 55.92-55.91 30.88 0 55.92 25.03 55.92 55.91z"/>
					</g>
					<g id="&lt;Group&gt;">
						<g id="&lt;Group&gt;">
							<path id="&lt;Compound Path&gt;" class="s1" d="m3398.43 1056.12c-31.75 0-57.59-25.83-57.59-57.59 0-31.75 25.84-57.59 57.59-57.59 31.75 0 57.59 25.84 57.59 57.59 0 31.76-25.84 57.59-57.59 57.59zm0-111.83c-29.91 0-54.25 24.33-54.25 54.24 0 29.91 24.34 54.25 54.25 54.25 29.91 0 54.25-24.34 54.25-54.25 0-29.91-24.34-54.24-54.25-54.24z"/>
						</g>
					</g>
				</g>
				<g id="&lt;Group&gt;">
					<g id="&lt;Group&gt;">
						<path id="&lt;Path&gt;" class="s0" d="m3412.5 998.53c0 6.45-5.23 11.67-11.67 11.67-6.44 0-11.67-5.22-11.67-11.67 0-6.44 5.23-11.67 11.67-11.67 6.44 0 11.67 5.23 11.67 11.67z"/>
					</g>
					<g id="&lt;Group&gt;">
						<g id="&lt;Group&gt;">
							<path id="&lt;Compound Path&gt;" class="s1" d="m3398.43 1011.87c-7.36 0-13.34-5.98-13.34-13.34 0-7.35 5.98-13.34 13.34-13.34 7.35 0 13.34 5.99 13.34 13.34 0 7.36-5.99 13.34-13.34 13.34zm0-23.33c-5.51 0-10 4.48-10 9.99 0 5.51 4.49 10 10 10 5.51 0 10-4.49 10-10 0-5.51-4.49-9.99-10-9.99z"/>
						</g>
					</g>
				</g>
			</g>
			<g id="&lt;Group&gt;">
				<g id="&lt;Group&gt;">
					<path id="&lt;Path&gt;" class="s1" d="m3342.51 1159.2c-0.92 0-1.67-0.75-1.67-1.67v-159c0-0.92 0.75-1.67 1.67-1.67 0.93 0 1.67 0.75 1.67 1.67v159c0 0.92-0.74 1.67-1.67 1.67z"/>
				</g>
			</g>
			<g id="&lt;Group&gt;">
				<g id="&lt;Group&gt;">
					<path id="&lt;Path&gt;" class="s1" d="m3454.34 1084.87c-0.92 0-1.67-0.75-1.67-1.67v-84.66c0-0.93 0.75-1.68 1.67-1.68 0.92 0 1.67 0.75 1.67 1.68v84.66c0 0.92-0.75 1.67-1.67 1.67z"/>
				</g>
			</g>
			<g id="&lt;Group&gt;">
				<g id="&lt;Group&gt;">
					<path id="&lt;Path&gt;" class="s1" d="m3454.34 1215.12c-0.92 0-1.67-0.75-1.67-1.67v-59.89c0-0.92 0.75-1.67 1.67-1.67 0.92 0 1.67 0.75 1.67 1.67v59.89c0 0.92-0.75 1.67-1.67 1.67z"/>
				</g>
			</g>
			<g id="&lt;Group&gt;">
				<g id="&lt;Group&gt;">
					<path id="&lt;Path&gt;" class="s1" d="m3230.68 1159.2c-0.92 0-1.67-0.75-1.67-1.67v-159c0-0.92 0.75-1.67 1.67-1.67 0.92 0 1.67 0.75 1.67 1.67v159c0 0.92-0.75 1.67-1.67 1.67z"/>
				</g>
			</g>
			<g id="&lt;Group&gt;">
				<g id="&lt;Group&gt;">
					<path id="&lt;Path&gt;" class="s1" d="m3208.9 1021.99c-0.43 0-0.86-0.17-1.18-0.49-0.66-0.66-0.66-1.71 0-2.37l21.78-21.78c0.65-0.65 1.71-0.65 2.36 0 0.65 0.65 0.65 1.71 0 2.36l-21.78 21.79c-0.33 0.32-0.75 0.49-1.18 0.49z"/>
				</g>
			</g>
			<g id="&lt;Group&gt;">
				<g id="&lt;Group&gt;">
					<path id="&lt;Path&gt;" class="s1" d="m3252.46 1021.99c-0.42 0-0.85-0.17-1.18-0.49l-21.78-21.79c-0.65-0.65-0.65-1.71 0-2.36 0.65-0.65 1.71-0.65 2.36 0l21.78 21.78c0.66 0.66 0.66 1.71 0 2.37-0.32 0.32-0.75 0.49-1.18 0.49z"/>
				</g>
			</g>
			<g id="&lt;Group&gt;">
				<g id="&lt;Group&gt;">
					<g id="&lt;Group&gt;">
						<path id="&lt;Path&gt;" class="s1" d="m3454.35 1215.12c-0.43 0-0.86-0.17-1.19-0.49l-21.78-21.79c-0.65-0.65-0.65-1.71 0-2.36 0.65-0.65 1.71-0.65 2.36 0l21.79 21.78c0.65 0.66 0.65 1.71 0 2.37-0.33 0.32-0.76 0.49-1.18 0.49z"/>
					</g>
				</g>
				<g id="&lt;Group&gt;">
					<g id="&lt;Group&gt;">
						<path id="&lt;Path&gt;" class="s1" d="m3454.35 1215.12c-0.43 0-0.86-0.17-1.19-0.49-0.65-0.66-0.65-1.71 0-2.37l21.79-21.78c0.65-0.65 1.71-0.65 2.36 0 0.65 0.65 0.65 1.71 0 2.36l-21.78 21.79c-0.33 0.32-0.76 0.49-1.18 0.49z"/>
					</g>
				</g>
			</g>
			<g id="&lt;Group&gt;">
				<g id="&lt;Group&gt;">
					<path id="&lt;Path&gt;" class="s3" d="m3500.24 1153.56h-86.99v-70.36h86.99z"/>
				</g>
				<g id="&lt;Group&gt;">
					<g id="&lt;Group&gt;">
						<path id="&lt;Compound Path&gt;" class="s1" d="m3497.84 1155.23h-86.99c-0.92 0-1.67-0.74-1.67-1.67v-70.36c0-0.92 0.75-1.67 1.67-1.67h86.99c0.92 0 1.67 0.75 1.67 1.67v70.36c0 0.93-0.75 1.67-1.67 1.67zm-85.32-3.34h83.65v-67.02h-83.65z"/>
					</g>
				</g>
			</g>
		</g>
		<g id="&lt;Group&gt;">
			<g id="&lt;Group&gt;">
				<g id="&lt;Group&gt;">
					<path id="&lt;Path&gt;" class="s2" d="m3062.14 365.97c0 20.6-16.7 37.3-37.3 37.3-20.61 0-37.31-16.7-37.31-37.3 0-20.61 16.7-37.31 37.31-37.31 20.6 0 37.3 16.7 37.3 37.31z"/>
				</g>
				<g id="&lt;Group&gt;">
					<g id="&lt;Group&gt;">
						<path id="&lt;Compound Path&gt;" class="s1" d="m3022.44 404.94c-21.5 0-38.98-17.48-38.98-38.97 0-21.5 17.48-38.98 38.98-38.98 21.49 0 38.97 17.48 38.97 38.98 0 21.49-17.48 38.97-38.97 38.97zm0-74.61c-19.65 0-35.64 15.99-35.64 35.64 0 19.65 15.99 35.63 35.64 35.63 19.65 0 35.63-15.98 35.63-35.63 0-19.65-15.98-35.64-35.63-35.64z"/>
					</g>
				</g>
			</g>
			<g id="&lt;Group&gt;">
				<g id="&lt;Group&gt;">
					<path id="&lt;Path&gt;" class="s2" d="m2898.34 464.46c0 4.49-3.64 8.14-8.14 8.14-4.5 0-8.14-3.65-8.14-8.14 0-4.5 3.64-8.14 8.14-8.14 4.5 0 8.14 3.64 8.14 8.14z"/>
				</g>
				<g id="&lt;Group&gt;">
					<g id="&lt;Group&gt;">
						<path id="&lt;Compound Path&gt;" class="s1" d="m2887.8 474.27c-5.41 0-9.81-4.4-9.81-9.81 0-5.41 4.4-9.81 9.81-9.81 5.41 0 9.81 4.4 9.81 9.81 0 5.41-4.4 9.81-9.81 9.81zm0-16.28c-3.57 0-6.47 2.9-6.47 6.47 0 3.57 2.9 6.47 6.47 6.47 3.57 0 6.47-2.9 6.47-6.47 0-3.57-2.9-6.47-6.47-6.47z"/>
					</g>
				</g>
			</g>
			<g id="&lt;Group&gt;">
				<g id="&lt;Group&gt;">
					<path id="&lt;Path&gt;" class="s1" d="m2887.8 457.99c-0.92 0-1.67-0.75-1.67-1.67v-90.35c0-0.93 0.75-1.67 1.67-1.67h97.33c0.92 0 1.67 0.74 1.67 1.67 0 0.92-0.75 1.67-1.67 1.67h-95.66v88.68c0 0.92-0.75 1.67-1.67 1.67z"/>
				</g>
			</g>
			<g id="&lt;Group&gt;">
				<g id="&lt;Group&gt;">
					<g id="&lt;Group&gt;">
						<path id="&lt;Compound Path&gt;" class="s1" d="m2939.42 489.58l-5.11-13.05h-16.44l-5.05 13.05h-4.83l16.22-41.2h4.01l16.14 41.2zm-6.6-17.34l-4.77-12.72q-0.92-2.41-1.91-5.92-0.61 2.7-1.76 5.92l-4.83 12.72z"/>
					</g>
				</g>
			</g>
			<g id="&lt;Group&gt;">
				<g id="&lt;Group&gt;">
					<path id="&lt;Path&gt;" class="s2" d="m3151.33 464.46c0 4.49 3.64 8.14 8.14 8.14 4.5 0 8.14-3.65 8.14-8.14 0-4.5-3.64-8.14-8.14-8.14-4.5 0-8.14 3.64-8.14 8.14z"/>
				</g>
				<g id="&lt;Group&gt;">
					<g id="&lt;Group&gt;">
						<path id="&lt;Compound Path&gt;" class="s1" d="m3157.07 474.27c-5.41 0-9.81-4.4-9.81-9.81 0-5.41 4.4-9.81 9.81-9.81 5.41 0 9.81 4.4 9.81 9.81 0 5.41-4.4 9.81-9.81 9.81zm0-16.28c-3.57 0-6.47 2.9-6.47 6.47 0 3.57 2.9 6.47 6.47 6.47 3.57 0 6.47-2.9 6.47-6.47 0-3.57-2.9-6.47-6.47-6.47z"/>
					</g>
				</g>
			</g>
			<g id="&lt;Group&gt;">
				<g id="&lt;Group&gt;">
					<path id="&lt;Path&gt;" class="s1" d="m3157.07 457.99c-0.92 0-1.67-0.75-1.67-1.67v-88.68h-95.66c-0.92 0-1.67-0.75-1.67-1.67 0-0.93 0.75-1.67 1.67-1.67h97.33c0.92 0 1.67 0.74 1.67 1.67v90.35c0 0.92-0.75 1.67-1.67 1.67z"/>
				</g>
			</g>
			<g id="&lt;Group&gt;">
				<g id="&lt;Group&gt;">
					<g id="&lt;Group&gt;">
						<path id="&lt;Compound Path&gt;" class="s1" d="m3106.9 448.55h11.58q8.17 0 11.82 2.44 3.65 2.44 3.65 7.72 0 3.65-2.04 6.02-2.03 2.37-5.93 3.07v0.28q9.34 1.6 9.34 9.82 0 5.5-3.72 8.59-3.72 3.09-10.39 3.09h-14.31zm4.77 17.56h7.85q5.05 0 7.27-1.58 2.22-1.59 2.22-5.35 0-3.45-2.47-4.98-2.47-1.53-7.86-1.53h-7.01zm0 4.04v15.35h8.55q4.97 0 7.48-1.92 2.51-1.92 2.51-6.02 0-3.82-2.56-5.61-2.57-1.8-7.82-1.8z"/>
					</g>
				</g>
			</g>
			<g id="&lt;Group&gt;">
				<g id="&lt;Group&gt;">
					<g id="&lt;Group&gt;">
						<path id="&lt;Compound Path&gt;" class="s1" d="m3033.96 348.83h5.14l-14.79 41.03h-4.71l-14.71-41.03h5.05l9.43 26.55q1.63 4.57 2.58 8.89 1.01-4.54 2.64-9.06z"/>
					</g>
				</g>
			</g>
		</g>
		<g id="&lt;Group&gt;">
			<g id="&lt;Group&gt;">
				<g id="&lt;Group&gt;">
					<path id="&lt;Path&gt;" class="s2" d="m2855.01 1971.09l279.57-219.47z"/>
				</g>
				<g id="&lt;Group&gt;">
					<path id="&lt;Path&gt;" class="s1" d="m2852.61 1972.77c-0.5 0-0.99-0.22-1.32-0.64-0.57-0.73-0.44-1.78 0.29-2.35l279.57-219.47c0.72-0.57 1.77-0.44 2.34 0.28 0.57 0.73 0.44 1.78-0.28 2.35l-279.57 219.47q-0.47 0.36-1.03 0.36z"/>
				</g>
			</g>
			<g id="&lt;Group&gt;">
				<g id="&lt;Group&gt;">
					<path id="&lt;Path&gt;" class="s2" d="m3038.39 1827.21l-82.89 64.99-37.19-47.43 82.88-65z"/>
				</g>
				<g id="&lt;Group&gt;">
					<g id="&lt;Group&gt;">
						<path id="&lt;Compound Path&gt;" class="s1" d="m2953.1 1893.87q-0.1 0-0.2-0.01c-0.44-0.06-0.84-0.28-1.11-0.63l-37.2-47.43c-0.56-0.73-0.44-1.78 0.29-2.35l82.88-64.99c0.73-0.57 1.78-0.45 2.35 0.28l37.19 47.44c0.28 0.34 0.4 0.79 0.35 1.23-0.06 0.44-0.28 0.84-0.63 1.11l-82.89 64.99q-0.45 0.36-1.03 0.36zm-34.85-48.82l35.14 44.8 80.25-62.93-35.13-44.8z"/>
					</g>
				</g>
			</g>
			<g id="&lt;Group&gt;">
				<g id="&lt;Group&gt;">
					<g id="&lt;Group&gt;">
						<path id="&lt;Path&gt;" class="s1" d="m3029.05 1906.63c-0.49 0-0.98-0.22-1.31-0.64l-26.95-34.36c-0.57-0.73-0.44-1.78 0.29-2.35 0.72-0.57 1.77-0.44 2.34 0.29l26.95 34.36c0.57 0.73 0.44 1.78-0.29 2.34q-0.47 0.36-1.03 0.36z"/>
					</g>
				</g>
				<g id="&lt;Group&gt;">
					<g id="&lt;Group&gt;">
						<path id="&lt;Path&gt;" class="s1" d="m3029.61 1907.31q-0.1 0-0.21-0.01l-16.07-1.95c-0.92-0.11-1.57-0.94-1.46-1.86 0.11-0.91 0.95-1.56 1.86-1.45l16.07 1.94c0.92 0.11 1.57 0.94 1.46 1.86-0.1 0.85-0.82 1.47-1.65 1.47z"/>
					</g>
				</g>
				<g id="&lt;Group&gt;">
					<g id="&lt;Group&gt;">
						<path id="&lt;Path&gt;" class="s1" d="m3029.61 1907.31q-0.1 0-0.21-0.01c-0.91-0.11-1.57-0.95-1.45-1.86l1.94-16.08c0.11-0.91 0.95-1.56 1.86-1.45 0.91 0.11 1.57 0.94 1.46 1.85l-1.95 16.08c-0.1 0.85-0.82 1.47-1.65 1.47z"/>
					</g>
				</g>
			</g>
			<g id="&lt;Group&gt;">
				<g id="&lt;Group&gt;">
					<g id="&lt;Group&gt;">
						<path id="&lt;Path&gt;" class="s1" d="m3031.55 1794.59c-0.5 0-0.99-0.22-1.32-0.64-0.57-0.72-0.44-1.77 0.29-2.34l34.36-26.95c0.72-0.57 1.78-0.44 2.34 0.29 0.57 0.72 0.45 1.77-0.28 2.34l-34.36 26.95q-0.47 0.35-1.03 0.35z"/>
					</g>
				</g>
				<g id="&lt;Group&gt;">
					<g id="&lt;Group&gt;">
						<path id="&lt;Path&gt;" class="s1" d="m3064.65 1783.17q-0.1 0-0.21-0.01c-0.91-0.11-1.57-0.95-1.45-1.86l1.94-16.08c0.11-0.91 0.95-1.56 1.86-1.45 0.92 0.11 1.57 0.94 1.46 1.86l-1.95 16.07c-0.1 0.85-0.82 1.47-1.65 1.47z"/>
					</g>
				</g>
				<g id="&lt;Group&gt;">
					<g id="&lt;Group&gt;">
						<path id="&lt;Path&gt;" class="s1" d="m3066.59 1767.1q-0.1 0-0.2-0.02l-16.08-1.94c-0.91-0.11-1.57-0.94-1.45-1.86 0.11-0.92 0.95-1.57 1.85-1.46l16.08 1.95c0.92 0.11 1.57 0.94 1.46 1.86-0.11 0.84-0.83 1.47-1.66 1.47z"/>
					</g>
				</g>
			</g>
			<g id="&lt;Group&gt;">
				<g id="&lt;Group&gt;">
					<g id="&lt;Group&gt;">
						<path id="&lt;Path&gt;" class="s1" d="m2882.08 1908.87c-0.5 0-0.99-0.22-1.32-0.64-0.57-0.72-0.44-1.77 0.29-2.34l34.36-26.95c0.72-0.57 1.78-0.44 2.34 0.29 0.57 0.72 0.45 1.77-0.28 2.34l-34.36 26.95q-0.47 0.35-1.03 0.35z"/>
					</g>
				</g>
				<g id="&lt;Group&gt;">
					<g id="&lt;Group&gt;">
						<path id="&lt;Path&gt;" class="s1" d="m2881.4 1909.42q-0.1 0-0.2-0.01c-0.92-0.11-1.57-0.94-1.46-1.86l1.95-16.07c0.11-0.92 0.94-1.57 1.86-1.46 0.91 0.11 1.56 0.94 1.45 1.86l-1.94 16.07c-0.1 0.85-0.82 1.47-1.66 1.47z"/>
					</g>
				</g>
				<g id="&lt;Group&gt;">
					<g id="&lt;Group&gt;">
						<path id="&lt;Path&gt;" class="s1" d="m2897.48 1911.37q-0.1 0-0.21-0.01l-16.07-1.95c-0.92-0.11-1.57-0.94-1.46-1.86 0.11-0.91 0.95-1.56 1.86-1.45l16.07 1.94c0.92 0.11 1.57 0.94 1.46 1.86-0.1 0.85-0.82 1.47-1.65 1.47z"/>
					</g>
				</g>
			</g>
			<g id="&lt;Group&gt;">
				<g id="&lt;Group&gt;">
					<g id="&lt;Group&gt;">
						<path id="&lt;Compound Path&gt;" class="s1" d="m2844.01 1919.56h-3.53v-21.77h12.29v3h-8.76v6.81h8.2v3.02h-8.2z"/>
					</g>
				</g>
				<g id="&lt;Group&gt;">
					<g id="&lt;Group&gt;">
						<path id="&lt;Compound Path&gt;" class="s1" d="m2865.45 1919.56h-3.5v-14.06q0-2.52 0.12-3.99-0.34 0.36-0.84 0.79-0.5 0.43-3.34 2.74l-1.76-2.22 6.4-5.03h2.92z"/>
					</g>
				</g>
			</g>
			<g id="&lt;Group&gt;">
				<g id="&lt;Group&gt;">
					<g id="&lt;Group&gt;">
						<path id="&lt;Compound Path&gt;" class="s1" d="m3051.15 1931.91h-3.53v-21.77h12.28v3.01h-8.75v6.81h8.2v3.02h-8.2z"/>
					</g>
				</g>
				<g id="&lt;Group&gt;">
					<g id="&lt;Group&gt;">
						<path id="&lt;Compound Path&gt;" class="s1" d="m3077.07 1931.91h-14.75v-2.65l5.61-5.64q2.49-2.55 3.3-3.61 0.81-1.07 1.18-2 0.37-0.94 0.37-2.01 0-1.48-0.88-2.33-0.89-0.85-2.45-0.85-1.25 0-2.42 0.47-1.17 0.46-2.7 1.66l-1.89-2.31q1.81-1.53 3.52-2.17 1.72-0.64 3.65-0.64 3.04 0 4.87 1.59 1.83 1.58 1.83 4.26 0 1.48-0.53 2.8-0.52 1.33-1.62 2.73-1.09 1.41-3.64 3.81l-3.78 3.66v0.15h10.33z"/>
					</g>
				</g>
			</g>
			<g id="&lt;Group&gt;">
				<g id="&lt;Group&gt;">
					<g id="&lt;Group&gt;">
						<path id="&lt;Compound Path&gt;" class="s1" d="m3083.13 1753.48h-3.53v-21.77h12.28v3.01h-8.75v6.81h8.2v3.02h-8.2z"/>
					</g>
				</g>
				<g id="&lt;Group&gt;">
					<g id="&lt;Group&gt;">
						<path id="&lt;Compound Path&gt;" class="s1" d="m3108.23 1736.72q0 2.07-1.2 3.44-1.21 1.38-3.4 1.86v0.12q2.62 0.32 3.93 1.63 1.31 1.3 1.31 3.46 0 3.14-2.22 4.85-2.21 1.7-6.31 1.7-3.62 0-6.1-1.18v-3.11q1.38 0.69 2.93 1.06 1.55 0.37 2.98 0.37 2.53 0 3.78-0.94 1.25-0.93 1.25-2.9 0-1.74-1.38-2.56-1.39-0.82-4.35-0.82h-1.89v-2.84h1.92q5.21 0 5.21-3.61 0-1.4-0.91-2.16-0.91-0.76-2.68-0.76-1.24 0-2.38 0.35-1.15 0.35-2.71 1.37l-1.71-2.45q2.99-2.2 6.95-2.2 3.29 0 5.14 1.41 1.84 1.42 1.84 3.91z"/>
					</g>
				</g>
			</g>
		</g>
		<g id="&lt;Group&gt;">
			<g id="&lt;Group&gt;">
				<path id="&lt;Path&gt;" class="s2" d="m2643.4 627.27h-74.58l37.04-119.79-111.91 163.14h74.58l-37.04 119.79z"/>
			</g>
			<g id="&lt;Group&gt;">
				<g id="&lt;Group&gt;">
					<path id="&lt;Compound Path&gt;" class="s1" d="m2529.09 792.08q-0.38 0-0.73-0.16c-0.74-0.36-1.11-1.21-0.87-2l36.37-117.63h-72.31c-0.62 0-1.19-0.34-1.48-0.89-0.29-0.55-0.25-1.21 0.1-1.72l111.91-163.14c0.47-0.68 1.36-0.92 2.11-0.56 0.74 0.36 1.11 1.21 0.86 2l-36.37 117.62h72.32c0.62 0 1.19 0.35 1.47 0.9 0.29 0.54 0.26 1.21-0.1 1.72l-111.91 163.14c-0.32 0.46-0.84 0.72-1.37 0.72zm-34.37-123.13h71.41c0.53 0 1.03 0.25 1.34 0.68 0.32 0.43 0.41 0.98 0.25 1.48l-33.79 109.28 103.89-151.44h-71.4c-0.53 0-1.03-0.26-1.35-0.68-0.31-0.43-0.41-0.98-0.25-1.49l33.79-109.28z"/>
				</g>
			</g>
		</g>
		<g id="&lt;Group&gt;">
			<g id="&lt;Group&gt;">
				<g id="&lt;Group&gt;">
					<g id="&lt;Group&gt;">
						<path id="&lt;Compound Path&gt;" class="s1" d="m1019.5 1868.91c-17.43 0-34.34-3.42-50.25-10.15-15.38-6.5-29.18-15.81-41.04-27.66-11.85-11.86-21.16-25.67-27.66-41.04-6.74-15.92-10.15-32.82-10.15-50.25 0-17.43 3.41-34.34 10.15-50.25 6.5-15.38 15.81-29.18 27.66-41.04 11.86-11.85 25.66-21.16 41.04-27.66 15.91-6.74 32.82-10.15 50.25-10.15 17.43 0 34.33 3.41 50.25 10.15 15.37 6.5 29.18 15.81 41.04 27.66 11.85 11.86 21.16 25.66 27.66 41.04 6.73 15.91 10.15 32.82 10.15 50.25 0 17.43-3.42 34.33-10.15 50.25-6.5 15.37-15.81 29.18-27.66 41.04-11.86 11.85-25.67 21.16-41.04 27.66-15.92 6.73-32.82 10.15-50.25 10.15zm0-254.86c-69.34 0-125.76 56.42-125.76 125.76 0 69.34 56.42 125.76 125.76 125.76 69.34 0 125.76-56.42 125.76-125.76 0-69.34-56.42-125.76-125.76-125.76z"/>
					</g>
				</g>
			</g>
			<g id="&lt;Group&gt;">
				<g id="&lt;Group&gt;">
					<path id="&lt;Path&gt;" class="s2" d="m1038.91 1739.81c0 9.4-7.61 17.01-17.01 17.01-9.4 0-17.02-7.61-17.02-17.01 0-9.4 7.62-17.02 17.02-17.02 9.4 0 17.01 7.62 17.01 17.02z"/>
				</g>
				<g id="&lt;Group&gt;">
					<g id="&lt;Group&gt;">
						<path id="&lt;Compound Path&gt;" class="s1" d="m1019.5 1758.5c-10.3 0-18.69-8.39-18.69-18.69 0-10.3 8.39-18.69 18.69-18.69 10.3 0 18.69 8.39 18.69 18.69 0 10.3-8.39 18.69-18.69 18.69zm0-34.04c-8.46 0-15.34 6.89-15.34 15.35 0 8.46 6.88 15.34 15.34 15.34 8.46 0 15.34-6.88 15.34-15.34 0-8.46-6.88-15.35-15.34-15.35z"/>
					</g>
				</g>
			</g>
			<g id="&lt;Group&gt;">
				<g id="&lt;Group&gt;">
					<path id="&lt;Path&gt;" class="s2" d="m987.4 1735.16h-73.38z"/>
				</g>
				<g id="&lt;Group&gt;">
					<path id="&lt;Path&gt;" class="s1" d="m985 1736.83h-73.38c-0.93 0-1.67-0.75-1.67-1.67 0-0.93 0.74-1.68 1.67-1.68h73.38c0.92 0 1.67 0.75 1.67 1.68 0 0.92-0.75 1.67-1.67 1.67z"/>
				</g>
			</g>
			<g id="&lt;Group&gt;">
				<g id="&lt;Group&gt;">
					<path id="&lt;Path&gt;" class="s2" d="m1043.83 1712.78h0.01l37.62-63.05z"/>
				</g>
				<g id="&lt;Group&gt;">
					<path id="&lt;Path&gt;" class="s1" d="m1041.44 1714.45c-0.93 0-1.68-0.75-1.68-1.67q0.01-0.56 0.31-0.98l37.55-62.92c0.47-0.8 1.5-1.05 2.29-0.58 0.8 0.47 1.05 1.5 0.58 2.29l-37.62 63.04c-0.3 0.51-0.85 0.82-1.43 0.82z"/>
				</g>
			</g>
			<g id="&lt;Group&gt;">
				<g id="&lt;Group&gt;">
					<path id="&lt;Path&gt;" class="s2" d="m1008.5 1771.96l-37.62 63.04z"/>
				</g>
				<g id="&lt;Group&gt;">
					<path id="&lt;Path&gt;" class="s1" d="m968.48 1836.67q-0.44 0.01-0.85-0.23c-0.79-0.48-1.05-1.5-0.58-2.29l37.62-63.05c0.47-0.79 1.5-1.05 2.29-0.58 0.79 0.48 1.05 1.5 0.58 2.29l-37.62 63.05c-0.31 0.52-0.87 0.81-1.44 0.81z"/>
				</g>
			</g>
			<g id="&lt;Group&gt;">
				<g id="&lt;Group&gt;">
					<g id="&lt;Group&gt;">
						<path id="&lt;Path&gt;" class="s2" d="m987.08 1739.81q0-2.37 0.32-4.65h-73.38q-0.11 2.31-0.11 4.65c0 41.18 23.06 76.99 56.97 95.19l37.62-63.04c-12.57-5.26-21.42-17.67-21.42-32.15z"/>
					</g>
					<g id="&lt;Group&gt;">
						<g id="&lt;Group&gt;">
							<path id="&lt;Compound Path&gt;" class="s1" d="m968.48 1836.67q-0.4 0.01-0.79-0.2c-35.68-19.15-57.85-56.19-57.85-96.66q0-2.49 0.11-4.73c0.04-0.89 0.77-1.6 1.67-1.6h73.38c0.48 0 0.94 0.21 1.26 0.58 0.32 0.36 0.46 0.85 0.39 1.32q-0.3 2.17-0.3 4.43c0 13.42 8.01 25.43 20.4 30.61 0.45 0.18 0.79 0.55 0.94 1.01 0.15 0.46 0.1 0.97-0.15 1.38l-37.62 63.05c-0.31 0.52-0.87 0.81-1.44 0.81zm-55.26-99.84q-0.04 1.44-0.04 2.98c0 38.7 20.91 74.17 54.69 92.95l35.84-60.05c-12.64-6.06-20.7-18.77-20.7-32.9q0-1.5 0.13-2.98z"/>
						</g>
					</g>
				</g>
				<g id="&lt;Group&gt;">
					<g id="&lt;Group&gt;">
						<path id="&lt;Path&gt;" class="s2" d="m1129.78 1735.16h-73.38q0.32 2.28 0.32 4.65c0 14.34-8.67 26.65-21.06 31.99l37.61 63.01c33.73-18.27 56.62-53.95 56.62-95q0-2.34-0.11-4.65z"/>
					</g>
					<g id="&lt;Group&gt;">
						<g id="&lt;Group&gt;">
							<path id="&lt;Compound Path&gt;" class="s1" d="m1070.87 1836.48c-0.57 0-1.12-0.29-1.43-0.81l-37.61-63.01c-0.25-0.42-0.31-0.92-0.16-1.37 0.15-0.46 0.49-0.83 0.93-1.03 12.18-5.24 20.05-17.2 20.05-30.45q-0.01-2.26-0.3-4.43c-0.07-0.47 0.07-0.96 0.39-1.32 0.32-0.37 0.78-0.58 1.26-0.58h73.38c0.9 0 1.63 0.71 1.67 1.6 0.07 1.5 0.11 3.05 0.11 4.73 0 40.3-22.03 77.26-57.49 96.47q-0.39 0.21-0.8 0.2zm-35.22-63.94l35.83 60.03c33.56-18.83 54.34-54.23 54.34-92.76q0-1.55-0.04-2.98h-69.92q0.13 1.48 0.13 2.98c0 13.95-7.93 26.6-20.34 32.73z"/>
						</g>
					</g>
				</g>
				<g id="&lt;Group&gt;">
					<g id="&lt;Group&gt;">
						<path id="&lt;Path&gt;" class="s2" d="m1043.84 1712.78l37.62-63.05c-17.07-11.32-37.55-17.91-59.56-17.91-21.86 0-42.22 6.5-59.22 17.69l37.61 63.01c5.94-4.71 13.45-7.53 21.61-7.53 8.31 0 15.94 2.92 21.93 7.79z"/>
					</g>
					<g id="&lt;Group&gt;">
						<g id="&lt;Group&gt;">
							<path id="&lt;Compound Path&gt;" class="s1" d="m1041.44 1714.45h-0.02c-0.38 0-0.75-0.13-1.05-0.38-5.88-4.77-13.29-7.41-20.87-7.41-7.55 0-14.66 2.48-20.57 7.17-0.38 0.29-0.87 0.41-1.34 0.33-0.48-0.09-0.89-0.37-1.14-0.79l-37.61-63c-0.45-0.77-0.23-1.76 0.52-2.25 17.86-11.76 38.65-17.97 60.14-17.97 21.63 0 42.54 6.29 60.48 18.19 0.74 0.49 0.97 1.48 0.51 2.25l-37.62 63.04c-0.3 0.51-0.85 0.82-1.43 0.82zm0-1.67zm-21.94-9.46c7.7 0 15.25 2.47 21.46 6.99l35.84-60.06c-17.09-10.97-36.86-16.76-57.3-16.76-20.29 0-39.95 5.72-56.96 16.55l35.83 60.02c6.19-4.41 13.46-6.74 21.13-6.74z"/>
						</g>
					</g>
				</g>
			</g>
			<g id="&lt;Group&gt;">
				<g id="&lt;Group&gt;">
					<path id="&lt;Path&gt;" class="s2" d="m1000.29 1712.52l-37.61-63.01z"/>
				</g>
				<g id="&lt;Group&gt;">
					<path id="&lt;Path&gt;" class="s1" d="m997.89 1714.19c-0.57 0-1.12-0.29-1.44-0.82l-37.61-63c-0.47-0.79-0.21-1.82 0.58-2.29 0.79-0.47 1.82-0.22 2.29 0.58l37.61 63c0.48 0.79 0.22 1.82-0.57 2.29q-0.41 0.24-0.86 0.24z"/>
				</g>
			</g>
		</g>
		<g id="&lt;Group&gt;">
			<g id="&lt;Group&gt;">
				<g id="&lt;Group&gt;">
					<path id="&lt;Path&gt;" class="s2" d="m2513.25 1840.69h-151.21c-1.48 0-2.68-1.2-2.68-2.68v-15.93c0-1.47 1.2-2.68 2.68-2.68h151.21c1.48 0 2.68 1.21 2.68 2.68v15.93c0 1.48-1.2 2.68-2.68 2.68z"/>
				</g>
				<g id="&lt;Group&gt;">
					<g id="&lt;Group&gt;">
						<path id="&lt;Compound Path&gt;" class="s1" d="m2510.85 1842.36h-151.21c-2.4 0-4.35-1.95-4.35-4.35v-15.93c0-2.4 1.95-4.35 4.35-4.35h151.21c2.4 0 4.35 1.95 4.35 4.35v15.93c0 2.4-1.95 4.35-4.35 4.35zm-151.21-21.29c-0.55 0-1.01 0.46-1.01 1.01v15.93c0 0.55 0.46 1.01 1.01 1.01h151.21c0.55 0 1.01-0.46 1.01-1.01v-15.93c0-0.55-0.46-1.01-1.01-1.01z"/>
					</g>
				</g>
			</g>
			<g id="&lt;Group&gt;">
				<g id="&lt;Group&gt;">
					<path id="&lt;Path&gt;" class="s2" d="m2492.78 1819.4l-16.98-46.95h-76.31l-16.98 46.95z"/>
				</g>
				<g id="&lt;Group&gt;">
					<g id="&lt;Group&gt;">
						<path id="&lt;Compound Path&gt;" class="s1" d="m2490.38 1821.07h-110.27c-0.55 0-1.06-0.26-1.37-0.71-0.31-0.45-0.39-1.02-0.2-1.53l16.98-46.95c0.24-0.66 0.87-1.1 1.57-1.1h76.31c0.7 0 1.33 0.44 1.57 1.1l16.98 46.95c0.19 0.51 0.11 1.08-0.2 1.53-0.31 0.45-0.82 0.71-1.37 0.71zm-107.89-3.34h105.51l-15.77-43.61h-73.97z"/>
					</g>
				</g>
			</g>
			<g id="&lt;Group&gt;">
				<g id="&lt;Group&gt;">
					<g id="&lt;Group&gt;">
						<path id="&lt;Path&gt;" class="s0" d="m2337.72 1587.58l-23.94-23.94 28.67-28.68 23.95 23.95z"/>
					</g>
					<g id="&lt;Group&gt;">
						<path id="&lt;Path&gt;" class="s1" d="m2335.32 1589.25c-0.42 0-0.85-0.16-1.18-0.49l-23.94-23.94c-0.31-0.31-0.49-0.74-0.49-1.18 0-0.44 0.18-0.87 0.49-1.18l28.67-28.68c0.65-0.65 1.71-0.65 2.37 0l23.94 23.95c0.65 0.65 0.65 1.71 0 2.36-0.65 0.65-1.71 0.65-2.36 0l-22.77-22.76-26.31 26.31 22.77 22.76c0.65 0.65 0.65 1.71 0 2.36-0.33 0.33-0.76 0.49-1.19 0.49z"/>
					</g>
				</g>
				<g id="&lt;Group&gt;">
					<g id="&lt;Group&gt;">
						<path id="&lt;Path&gt;" class="s0" d="m2452.97 1645.48l23.95 23.95-28.68 28.67-23.94-23.94z"/>
					</g>
					<g id="&lt;Group&gt;">
						<path id="&lt;Path&gt;" class="s1" d="m2445.84 1699.77c-0.44 0-0.87-0.17-1.18-0.49l-23.94-23.94c-0.66-0.65-0.66-1.71 0-2.37 0.65-0.65 1.71-0.65 2.36 0l22.76 22.77 26.31-26.31-22.76-22.77c-0.65-0.65-0.65-1.71 0-2.36 0.65-0.65 1.71-0.65 2.36 0l23.95 23.95c0.65 0.65 0.65 1.71 0 2.36l-28.68 28.67c-0.31 0.32-0.73 0.49-1.18 0.49z"/>
					</g>
				</g>
				<g id="&lt;Group&gt;">
					<g id="&lt;Group&gt;">
						<path id="&lt;Path&gt;" class="s3" d="m2453.99 1644.46l-30.71 30.71c-3.11 3.11-8.2 3.11-11.31 0l-75.26-75.26c-3.11-3.11-3.11-8.2 0-11.31l30.71-30.71c3.11-3.11 8.2-3.11 11.31 0l75.26 75.27c3.11 3.11 3.11 8.19 0 11.3z"/>
					</g>
					<g id="&lt;Group&gt;">
						<g id="&lt;Group&gt;">
							<path id="&lt;Compound Path&gt;" class="s1" d="m2415.22 1679.18c-2.47 0-4.95-0.94-6.83-2.82l-75.26-75.27c-1.82-1.82-2.83-4.25-2.83-6.83 0-2.59 1.01-5.02 2.83-6.84l30.71-30.71c3.76-3.77 9.9-3.77 13.67 0l75.26 75.26c1.82 1.82 2.82 4.25 2.82 6.84 0 2.59-1 5.02-2.82 6.84l-30.71 30.71c-1.88 1.88-4.36 2.82-6.83 2.82zm-44.56-121.96c-1.62 0-3.24 0.62-4.47 1.85l-30.71 30.71c-1.19 1.19-1.85 2.78-1.85 4.48 0 1.69 0.66 3.28 1.85 4.47l75.26 75.26c2.47 2.47 6.48 2.47 8.95 0l30.71-30.71 1.18 1.18-1.18-1.18c1.19-1.19 1.84-2.77 1.84-4.47 0-1.7-0.65-3.28-1.84-4.47l-75.27-75.27c-1.23-1.23-2.85-1.85-4.47-1.85z"/>
						</g>
					</g>
				</g>
				<g id="&lt;Group&gt;">
					<g id="&lt;Group&gt;">
						<path id="&lt;Path&gt;" class="s3" d="m2344.54 1532.87l-32.85 32.86c-2.52 2.52-6.64 2.52-9.16 0-2.52-2.52-2.52-6.64 0-9.16l32.85-32.86c2.52-2.52 6.64-2.52 9.16 0 2.52 2.52 2.52 6.64 0 9.16z"/>
					</g>
					<g id="&lt;Group&gt;">
						<g id="&lt;Group&gt;">
							<path id="&lt;Compound Path&gt;" class="s1" d="m2304.71 1569.29c-2.19 0-4.23-0.85-5.77-2.38-3.17-3.18-3.17-8.35 0-11.53l32.86-32.85c3.18-3.18 8.35-3.18 11.52 0 3.18 3.18 3.18 8.35 0 11.52l-32.85 32.86c-1.53 1.53-3.58 2.38-5.76 2.38zm32.85-45.8c-1.29 0-2.5 0.5-3.4 1.4l-32.85 32.86c-1.88 1.87-1.88 4.92 0 6.8 0.9 0.9 2.11 1.4 3.4 1.4 1.29 0 2.49-0.5 3.4-1.4l32.85-32.86c1.88-1.87 1.88-4.92 0-6.8-0.9-0.9-2.11-1.4-3.4-1.4zm4.58 9.38h0.01z"/>
						</g>
					</g>
				</g>
			</g>
			<g id="&lt;Group&gt;">
				<g id="&lt;Group&gt;">
					<g id="&lt;Group&gt;">
						<path id="&lt;Path&gt;" class="s0" d="m2446.23 1787.87c-4.53 0-8.97-0.24-13.22-0.68-24.96-2.65-47.72-13.3-64.07-29.99-8.33-8.5-14.81-18.3-19.29-29.15-4.64-11.26-6.99-23.36-6.99-35.99 0-11.93 2.21-23.56 6.57-34.55 2.01-5.07 7.74-7.55 12.81-5.54 5.07 2 7.55 7.74 5.54 12.81-3.44 8.67-5.18 17.85-5.18 27.28 0 39.92 29.89 70.96 72.69 75.49 26.59 2.82 53.95-4.59 65.05-17.61 5.45-6.39 6.91-13.89 4.47-22.94-1.43-5.27 1.69-10.69 6.95-12.11 5.26-1.42 10.68 1.69 12.1 6.96 4.16 15.37 1.22 29.51-8.5 40.9-15.18 17.81-43.58 25.12-68.93 25.12z"/>
					</g>
					<g id="&lt;Group&gt;">
						<g id="&lt;Group&gt;">
							<path id="&lt;Compound Path&gt;" class="s1" d="m2443.83 1789.54c-4.55 0-9.05-0.23-13.39-0.69-25.35-2.69-48.47-13.51-65.1-30.49-8.47-8.64-15.08-18.63-19.63-29.68-4.72-11.45-7.12-23.77-7.12-36.62 0-12.14 2.25-23.97 6.68-35.17 1.14-2.86 3.32-5.12 6.15-6.34 2.83-1.22 5.97-1.27 8.83-0.14 2.87 1.14 5.12 3.32 6.35 6.15 1.22 2.83 1.27 5.97 0.13 8.83-3.35 8.48-5.06 17.45-5.06 26.67 0 39.04 29.28 69.4 71.2 73.83 26.08 2.76 52.83-4.4 63.6-17.03 5.07-5.94 6.41-12.95 4.12-21.43-0.8-2.97-0.4-6.08 1.14-8.76 1.53-2.67 4.02-4.59 6.99-5.39 6.15-1.66 12.5 1.99 14.16 8.13 4.3 15.93 1.24 30.6-8.84 42.42-13.73 16.1-39.98 25.71-70.21 25.71zm-87.83-136.6q-1.67 0-3.25 0.68c-2.01 0.87-3.56 2.47-4.37 4.5-4.28 10.8-6.45 22.22-6.45 33.94 0 12.41 2.31 24.3 6.87 35.35 4.39 10.65 10.76 20.28 18.93 28.62 16.08 16.42 38.48 26.89 63.06 29.49 4.22 0.45 8.61 0.68 13.04 0.68 29.27 0 54.56-9.17 67.66-24.53 9.34-10.96 12.16-24.57 8.16-39.39-1.18-4.36-5.69-6.95-10.05-5.77-4.37 1.18-6.96 5.69-5.78 10.05 2.6 9.62 1.03 17.63-4.8 24.47-11.44 13.4-39.41 21.05-66.5 18.19-43.68-4.63-74.19-36.35-74.19-77.16 0-9.64 1.78-19.03 5.3-27.9 0.8-2.03 0.77-4.26-0.1-6.27-0.87-2.01-2.47-3.56-4.51-4.37q-1.48-0.58-3.02-0.58z"/>
						</g>
					</g>
				</g>
			</g>
			<g id="&lt;Group&gt;">
				<g id="&lt;Group&gt;">
					<path id="&lt;Path&gt;" class="s2" d="m2533.82 1699.02l-53.47 53.47c-3.11 3.11-8.2 3.11-11.31 0l-4.27-4.27c-3.11-3.11-3.11-8.2 0-11.31l53.47-53.47c3.11-3.11 8.2-3.11 11.31 0l4.27 4.27c3.11 3.11 3.11 8.2 0 11.31z"/>
				</g>
				<g id="&lt;Group&gt;">
					<g id="&lt;Group&gt;">
						<path id="&lt;Compound Path&gt;" class="s1" d="m2472.3 1756.5c-2.48 0-4.95-0.94-6.84-2.83l-4.27-4.27c-3.77-3.77-3.77-9.9 0-13.67l53.47-53.47c1.82-1.82 4.24-2.82 6.83-2.82 2.59 0 5.02 1 6.84 2.82l4.27 4.27c3.77 3.77 3.77 9.91 0 13.67l-53.47 53.47c-1.88 1.89-4.36 2.83-6.83 2.83zm49.19-73.72c-1.69 0-3.28 0.66-4.47 1.84l-53.47 53.47c-2.46 2.47-2.46 6.48 0 8.95l4.27 4.27c2.47 2.47 6.48 2.47 8.95 0l53.47-53.47c2.46-2.46 2.46-6.48 0-8.94l-4.27-4.28c-1.19-1.18-2.78-1.84-4.48-1.84z"/>
					</g>
				</g>
			</g>
			<g id="&lt;Group&gt;">
				<g id="&lt;Group&gt;">
					<path id="&lt;Path&gt;" class="s2" d="m2402.26 1637.68c0 15.51-12.56 28.07-28.06 28.07-15.51 0-28.07-12.56-28.07-28.07 0-15.5 12.56-28.06 28.07-28.06 15.5 0 28.06 12.56 28.06 28.06z"/>
				</g>
				<g id="&lt;Group&gt;">
					<g id="&lt;Group&gt;">
						<path id="&lt;Compound Path&gt;" class="s1" d="m2371.8 1667.42c-16.4 0-29.74-13.34-29.74-29.73 0-16.4 13.34-29.74 29.74-29.74 16.39 0 29.74 13.34 29.74 29.74 0 16.39-13.35 29.73-29.74 29.73zm0-56.13c-14.56 0-26.4 11.84-26.4 26.4 0 14.55 11.84 26.39 26.4 26.39 14.55 0 26.39-11.84 26.39-26.39 0-14.56-11.84-26.4-26.39-26.4z"/>
					</g>
				</g>
			</g>
		</g>
		<g id="&lt;Group&gt;">
			<g id="&lt;Group&gt;">
				<g id="&lt;Group&gt;">
					<g id="&lt;Group&gt;">
						<path id="&lt;Path&gt;" class="s3" d="m544.38 1108.59v50.26c0 10.4-8.51 18.92-18.91 18.92-10.41 0-18.92-8.52-18.92-18.92v-50.26z"/>
					</g>
					<g id="&lt;Group&gt;">
						<g id="&lt;Group&gt;">
							<path id="&lt;Compound Path&gt;" class="s1" d="m523.07 1179.44c-11.36 0-20.59-9.24-20.59-20.59v-50.26c0-0.93 0.74-1.68 1.67-1.68h37.83c0.93 0 1.67 0.75 1.67 1.68v50.26c0 11.35-9.23 20.59-20.58 20.59zm-17.25-69.18v48.59c0 9.51 7.74 17.25 17.25 17.25 9.51 0 17.24-7.74 17.24-17.25v-48.59z"/>
						</g>
					</g>
				</g>
				<g id="&lt;Group&gt;">
					<g id="&lt;Group&gt;">
						<g id="&lt;Group&gt;">
							<path id="&lt;Compound Path&gt;" class="s1" d="m523.07 1179.44c-11.36 0-20.59-9.24-20.59-20.59v-113.76c0-0.92 0.74-1.67 1.67-1.67h37.83c0.93 0 1.67 0.75 1.67 1.67v113.76c0 11.35-9.23 20.59-20.58 20.59zm-17.25-132.68v112.09c0 9.51 7.74 17.25 17.25 17.25 9.51 0 17.24-7.74 17.24-17.25v-112.09z"/>
						</g>
					</g>
				</g>
				<g id="&lt;Group&gt;">
					<g id="&lt;Group&gt;">
						<path id="&lt;Path&gt;" class="s3" d="m549.61 1049.99c0 1.34-0.56 2.57-1.44 3.46-0.89 0.88-2.12 1.44-3.46 1.44h-38.48c-2.7 0-4.9-2.21-4.9-4.9 0-1.35 0.55-2.57 1.44-3.46 0.88-0.89 2.11-1.44 3.46-1.44h38.48c2.69 0 4.9 2.2 4.9 4.9z"/>
					</g>
					<g id="&lt;Group&gt;">
						<g id="&lt;Group&gt;">
							<path id="&lt;Compound Path&gt;" class="s1" d="m542.31 1056.56h-38.48c-3.63 0-6.57-2.95-6.57-6.57 0-1.75 0.68-3.4 1.92-4.64 1.25-1.25 2.9-1.93 4.65-1.93h38.48c3.62 0 6.57 2.94 6.57 6.57 0 1.75-0.69 3.39-1.93 4.64-1.25 1.24-2.9 1.93-4.64 1.93zm-38.48-9.8c-0.86 0-1.67 0.34-2.28 0.95-0.62 0.61-0.95 1.42-0.95 2.28 0 1.78 1.44 3.23 3.23 3.23h38.48c0.85 0 1.66-0.34 2.27-0.96 0.62-0.61 0.95-1.42 0.95-2.27 0-1.78-1.44-3.23-3.22-3.23z"/>
						</g>
					</g>
				</g>
				<g id="&lt;Group&gt;">
					<g id="&lt;Group&gt;">
						<path id="&lt;Path&gt;" class="s3" d="m506.55 1067.63h14.42z"/>
					</g>
					<g id="&lt;Group&gt;">
						<path id="&lt;Path&gt;" class="s1" d="m518.57 1069.3h-14.42c-0.93 0-1.67-0.74-1.67-1.67 0-0.92 0.74-1.67 1.67-1.67h14.42c0.92 0 1.67 0.75 1.67 1.67 0 0.93-0.75 1.67-1.67 1.67z"/>
					</g>
				</g>
				<g id="&lt;Group&gt;">
					<g id="&lt;Group&gt;">
						<path id="&lt;Path&gt;" class="s3" d="m506.55 1079.7h8.46z"/>
					</g>
					<g id="&lt;Group&gt;">
						<path id="&lt;Path&gt;" class="s1" d="m512.61 1081.37h-8.46c-0.92 0-1.67-0.75-1.67-1.67 0-0.92 0.75-1.67 1.67-1.67h8.46c0.92 0 1.67 0.75 1.67 1.67 0 0.92-0.75 1.67-1.67 1.67z"/>
					</g>
				</g>
				<g id="&lt;Group&gt;">
					<g id="&lt;Group&gt;">
						<path id="&lt;Path&gt;" class="s3" d="m506.55 1091.77h8.46z"/>
					</g>
					<g id="&lt;Group&gt;">
						<path id="&lt;Path&gt;" class="s1" d="m512.61 1093.44h-8.46c-0.92 0-1.67-0.75-1.67-1.67 0-0.92 0.75-1.67 1.67-1.67h8.46c0.92 0 1.67 0.75 1.67 1.67 0 0.92-0.75 1.67-1.67 1.67z"/>
					</g>
				</g>
				<g id="&lt;Group&gt;">
					<g id="&lt;Group&gt;">
						<path id="&lt;Path&gt;" class="s3" d="m506.55 1103.84h8.46z"/>
					</g>
					<g id="&lt;Group&gt;">
						<path id="&lt;Path&gt;" class="s1" d="m512.61 1105.51h-8.46c-0.92 0-1.67-0.75-1.67-1.67 0-0.92 0.75-1.67 1.67-1.67h8.46c0.92 0 1.67 0.75 1.67 1.67 0 0.92-0.75 1.67-1.67 1.67z"/>
					</g>
				</g>
				<g id="&lt;Group&gt;">
					<g id="&lt;Group&gt;">
						<path id="&lt;Path&gt;" class="s3" d="m506.55 1115.91h8.46z"/>
					</g>
					<g id="&lt;Group&gt;">
						<path id="&lt;Path&gt;" class="s1" d="m512.61 1117.58h-8.46c-0.92 0-1.67-0.75-1.67-1.67 0-0.93 0.75-1.67 1.67-1.67h8.46c0.92 0 1.67 0.74 1.67 1.67 0 0.92-0.75 1.67-1.67 1.67z"/>
					</g>
				</g>
				<g id="&lt;Group&gt;">
					<g id="&lt;Group&gt;">
						<path id="&lt;Path&gt;" class="s3" d="m506.55 1127.97h14.42z"/>
					</g>
					<g id="&lt;Group&gt;">
						<path id="&lt;Path&gt;" class="s1" d="m518.57 1129.65h-14.42c-0.93 0-1.67-0.75-1.67-1.68 0-0.92 0.74-1.67 1.67-1.67h14.42c0.92 0 1.67 0.75 1.67 1.67 0 0.93-0.75 1.68-1.67 1.68z"/>
					</g>
				</g>
				<g id="&lt;Group&gt;">
					<g id="&lt;Group&gt;">
						<path id="&lt;Path&gt;" class="s3" d="m506.55 1140.04h8.46z"/>
					</g>
					<g id="&lt;Group&gt;">
						<path id="&lt;Path&gt;" class="s1" d="m512.61 1141.71h-8.46c-0.92 0-1.67-0.74-1.67-1.67 0-0.92 0.75-1.67 1.67-1.67h8.46c0.92 0 1.67 0.75 1.67 1.67 0 0.93-0.75 1.67-1.67 1.67z"/>
					</g>
				</g>
				<g id="&lt;Group&gt;">
					<g id="&lt;Group&gt;">
						<path id="&lt;Path&gt;" class="s3" d="m506.55 1152.11h8.46z"/>
					</g>
					<g id="&lt;Group&gt;">
						<path id="&lt;Path&gt;" class="s1" d="m512.61 1153.78h-8.46c-0.92 0-1.67-0.75-1.67-1.67 0-0.92 0.75-1.67 1.67-1.67h8.46c0.92 0 1.67 0.75 1.67 1.67 0 0.92-0.75 1.67-1.67 1.67z"/>
					</g>
				</g>
			</g>
			<g id="&lt;Group&gt;">
				<g id="&lt;Group&gt;">
					<g id="&lt;Group&gt;">
						<path id="&lt;Path&gt;" class="s3" d="m618.21 1108.59v50.26c0 10.4-8.51 18.92-18.91 18.92-10.41 0-18.92-8.52-18.92-18.92v-50.26z"/>
					</g>
					<g id="&lt;Group&gt;">
						<g id="&lt;Group&gt;">
							<path id="&lt;Compound Path&gt;" class="s1" d="m596.9 1179.44c-11.36 0-20.59-9.24-20.59-20.59v-50.26c0-0.93 0.75-1.68 1.67-1.68h37.83c0.93 0 1.67 0.75 1.67 1.68v50.26c0 11.35-9.23 20.59-20.58 20.59zm-17.25-69.18v48.59c0 9.51 7.74 17.25 17.25 17.25 9.51 0 17.24-7.74 17.24-17.25v-48.59z"/>
						</g>
					</g>
				</g>
				<g id="&lt;Group&gt;">
					<g id="&lt;Group&gt;">
						<g id="&lt;Group&gt;">
							<path id="&lt;Compound Path&gt;" class="s1" d="m596.9 1179.44c-11.36 0-20.59-9.24-20.59-20.59v-113.76c0-0.92 0.75-1.67 1.67-1.67h37.83c0.93 0 1.67 0.75 1.67 1.67v113.76c0 11.35-9.23 20.59-20.58 20.59zm-17.25-132.68v112.09c0 9.51 7.74 17.25 17.25 17.25 9.51 0 17.24-7.74 17.24-17.25v-112.09z"/>
						</g>
					</g>
				</g>
				<g id="&lt;Group&gt;">
					<g id="&lt;Group&gt;">
						<path id="&lt;Path&gt;" class="s3" d="m623.44 1049.99c0 1.34-0.56 2.57-1.44 3.46-0.89 0.88-2.12 1.44-3.46 1.44h-38.48c-2.7 0-4.9-2.21-4.9-4.9 0-1.35 0.55-2.57 1.44-3.46 0.88-0.89 2.11-1.44 3.46-1.44h38.48c2.69 0 4.9 2.2 4.9 4.9z"/>
					</g>
					<g id="&lt;Group&gt;">
						<g id="&lt;Group&gt;">
							<path id="&lt;Compound Path&gt;" class="s1" d="m616.14 1056.56h-38.48c-3.63 0-6.57-2.95-6.57-6.57 0-1.75 0.68-3.4 1.92-4.64 1.25-1.25 2.9-1.93 4.65-1.93h38.48c3.62 0 6.57 2.94 6.57 6.57 0 1.75-0.69 3.39-1.93 4.64-1.25 1.24-2.89 1.93-4.64 1.93zm-38.48-9.8c-0.86 0-1.67 0.34-2.28 0.95-0.62 0.61-0.95 1.42-0.95 2.28 0 1.78 1.45 3.23 3.23 3.23h38.48c0.85 0 1.66-0.34 2.27-0.95 0.62-0.62 0.95-1.43 0.95-2.28 0-1.78-1.44-3.23-3.22-3.23z"/>
						</g>
					</g>
				</g>
				<g id="&lt;Group&gt;">
					<g id="&lt;Group&gt;">
						<path id="&lt;Path&gt;" class="s3" d="m580.38 1067.63h14.42z"/>
					</g>
					<g id="&lt;Group&gt;">
						<path id="&lt;Path&gt;" class="s1" d="m592.4 1069.3h-14.42c-0.92 0-1.67-0.74-1.67-1.67 0-0.92 0.75-1.67 1.67-1.67h14.42c0.92 0 1.67 0.75 1.67 1.67 0 0.93-0.75 1.67-1.67 1.67z"/>
					</g>
				</g>
				<g id="&lt;Group&gt;">
					<g id="&lt;Group&gt;">
						<path id="&lt;Path&gt;" class="s3" d="m580.38 1079.7h8.46z"/>
					</g>
					<g id="&lt;Group&gt;">
						<path id="&lt;Path&gt;" class="s1" d="m586.44 1081.37h-8.46c-0.92 0-1.67-0.75-1.67-1.67 0-0.92 0.75-1.67 1.67-1.67h8.46c0.92 0 1.67 0.75 1.67 1.67 0 0.92-0.75 1.67-1.67 1.67z"/>
					</g>
				</g>
				<g id="&lt;Group&gt;">
					<g id="&lt;Group&gt;">
						<path id="&lt;Path&gt;" class="s3" d="m580.38 1091.77h8.46z"/>
					</g>
					<g id="&lt;Group&gt;">
						<path id="&lt;Path&gt;" class="s1" d="m586.44 1093.44h-8.46c-0.92 0-1.67-0.75-1.67-1.67 0-0.92 0.75-1.67 1.67-1.67h8.46c0.92 0 1.67 0.75 1.67 1.67 0 0.92-0.75 1.67-1.67 1.67z"/>
					</g>
				</g>
				<g id="&lt;Group&gt;">
					<g id="&lt;Group&gt;">
						<path id="&lt;Path&gt;" class="s3" d="m580.38 1103.84h8.46z"/>
					</g>
					<g id="&lt;Group&gt;">
						<path id="&lt;Path&gt;" class="s1" d="m586.44 1105.51h-8.46c-0.92 0-1.67-0.75-1.67-1.67 0-0.92 0.75-1.67 1.67-1.67h8.46c0.92 0 1.67 0.75 1.67 1.67 0 0.92-0.75 1.67-1.67 1.67z"/>
					</g>
				</g>
				<g id="&lt;Group&gt;">
					<g id="&lt;Group&gt;">
						<path id="&lt;Path&gt;" class="s3" d="m580.38 1115.91h8.46z"/>
					</g>
					<g id="&lt;Group&gt;">
						<path id="&lt;Path&gt;" class="s1" d="m586.44 1117.58h-8.46c-0.92 0-1.67-0.75-1.67-1.67 0-0.93 0.75-1.67 1.67-1.67h8.46c0.92 0 1.67 0.74 1.67 1.67 0 0.92-0.75 1.67-1.67 1.67z"/>
					</g>
				</g>
				<g id="&lt;Group&gt;">
					<g id="&lt;Group&gt;">
						<path id="&lt;Path&gt;" class="s3" d="m580.38 1127.97h14.42z"/>
					</g>
					<g id="&lt;Group&gt;">
						<path id="&lt;Path&gt;" class="s1" d="m592.4 1129.65h-14.42c-0.92 0-1.67-0.75-1.67-1.68 0-0.92 0.75-1.67 1.67-1.67h14.42c0.92 0 1.67 0.75 1.67 1.67 0 0.93-0.75 1.68-1.67 1.68z"/>
					</g>
				</g>
				<g id="&lt;Group&gt;">
					<g id="&lt;Group&gt;">
						<path id="&lt;Path&gt;" class="s3" d="m580.38 1140.04h8.46z"/>
					</g>
					<g id="&lt;Group&gt;">
						<path id="&lt;Path&gt;" class="s1" d="m586.44 1141.71h-8.46c-0.92 0-1.67-0.74-1.67-1.67 0-0.92 0.75-1.67 1.67-1.67h8.46c0.92 0 1.67 0.75 1.67 1.67 0 0.93-0.75 1.67-1.67 1.67z"/>
					</g>
				</g>
				<g id="&lt;Group&gt;">
					<g id="&lt;Group&gt;">
						<path id="&lt;Path&gt;" class="s3" d="m580.38 1152.11h8.46z"/>
					</g>
					<g id="&lt;Group&gt;">
						<path id="&lt;Path&gt;" class="s1" d="m586.44 1153.78h-8.46c-0.92 0-1.67-0.75-1.67-1.67 0-0.92 0.75-1.67 1.67-1.67h8.46c0.92 0 1.67 0.75 1.67 1.67 0 0.92-0.75 1.67-1.67 1.67z"/>
					</g>
				</g>
			</g>
			<g id="&lt;Group&gt;">
				<g id="&lt;Group&gt;">
					<g id="&lt;Group&gt;">
						<path id="&lt;Path&gt;" class="s3" d="m692.04 1108.59v50.26c0 10.4-8.51 18.92-18.91 18.92-10.41 0-18.92-8.52-18.92-18.92v-50.26z"/>
					</g>
					<g id="&lt;Group&gt;">
						<g id="&lt;Group&gt;">
							<path id="&lt;Compound Path&gt;" class="s1" d="m670.73 1179.44c-11.36 0-20.59-9.24-20.59-20.59v-50.26c0-0.93 0.75-1.68 1.67-1.68h37.83c0.93 0 1.67 0.75 1.67 1.68v50.26c0 11.35-9.23 20.59-20.58 20.59zm-17.25-69.18v48.59c0 9.51 7.74 17.25 17.25 17.25 9.51 0 17.24-7.74 17.24-17.25v-48.59z"/>
						</g>
					</g>
				</g>
				<g id="&lt;Group&gt;">
					<g id="&lt;Group&gt;">
						<g id="&lt;Group&gt;">
							<path id="&lt;Compound Path&gt;" class="s1" d="m670.73 1179.44c-11.36 0-20.59-9.24-20.59-20.59v-113.76c0-0.92 0.75-1.67 1.67-1.67h37.83c0.93 0 1.67 0.75 1.67 1.67v113.76c0 11.35-9.23 20.59-20.58 20.59zm-17.25-132.68v112.09c0 9.51 7.74 17.25 17.25 17.25 9.51 0 17.24-7.74 17.24-17.25v-112.09z"/>
						</g>
					</g>
				</g>
				<g id="&lt;Group&gt;">
					<g id="&lt;Group&gt;">
						<path id="&lt;Path&gt;" class="s3" d="m697.27 1049.99c0 1.34-0.56 2.57-1.44 3.46-0.89 0.88-2.12 1.44-3.46 1.44h-38.48c-2.7 0-4.9-2.21-4.9-4.9 0-1.35 0.55-2.57 1.44-3.46 0.88-0.89 2.11-1.44 3.46-1.44h38.48c2.69 0 4.9 2.2 4.9 4.9z"/>
					</g>
					<g id="&lt;Group&gt;">
						<g id="&lt;Group&gt;">
							<path id="&lt;Compound Path&gt;" class="s1" d="m689.97 1056.56h-38.48c-3.63 0-6.57-2.95-6.57-6.57 0-1.75 0.68-3.4 1.93-4.64 1.24-1.25 2.89-1.93 4.64-1.93h38.48c3.62 0 6.57 2.94 6.57 6.57 0 1.75-0.69 3.39-1.93 4.64-1.25 1.24-2.9 1.93-4.64 1.93zm-38.48-9.8c-0.86 0-1.67 0.34-2.28 0.95-0.61 0.61-0.95 1.42-0.95 2.28 0 1.78 1.45 3.23 3.23 3.23h38.48c0.85 0 1.66-0.34 2.28-0.96 0.61-0.61 0.95-1.42 0.95-2.27 0-1.78-1.45-3.23-3.23-3.23z"/>
						</g>
					</g>
				</g>
				<g id="&lt;Group&gt;">
					<g id="&lt;Group&gt;">
						<path id="&lt;Path&gt;" class="s3" d="m654.21 1067.63h14.42z"/>
					</g>
					<g id="&lt;Group&gt;">
						<path id="&lt;Path&gt;" class="s1" d="m666.23 1069.3h-14.42c-0.92 0-1.67-0.74-1.67-1.67 0-0.92 0.75-1.67 1.67-1.67h14.42c0.92 0 1.67 0.75 1.67 1.67 0 0.93-0.75 1.67-1.67 1.67z"/>
					</g>
				</g>
				<g id="&lt;Group&gt;">
					<g id="&lt;Group&gt;">
						<path id="&lt;Path&gt;" class="s3" d="m654.21 1079.7h8.46z"/>
					</g>
					<g id="&lt;Group&gt;">
						<path id="&lt;Path&gt;" class="s1" d="m660.27 1081.37h-8.46c-0.92 0-1.67-0.75-1.67-1.67 0-0.92 0.75-1.67 1.67-1.67h8.46c0.92 0 1.67 0.75 1.67 1.67 0 0.92-0.75 1.67-1.67 1.67z"/>
					</g>
				</g>
				<g id="&lt;Group&gt;">
					<g id="&lt;Group&gt;">
						<path id="&lt;Path&gt;" class="s3" d="m654.21 1091.77h8.46z"/>
					</g>
					<g id="&lt;Group&gt;">
						<path id="&lt;Path&gt;" class="s1" d="m660.27 1093.44h-8.46c-0.92 0-1.67-0.75-1.67-1.67 0-0.92 0.75-1.67 1.67-1.67h8.46c0.92 0 1.67 0.75 1.67 1.67 0 0.92-0.75 1.67-1.67 1.67z"/>
					</g>
				</g>
				<g id="&lt;Group&gt;">
					<g id="&lt;Group&gt;">
						<path id="&lt;Path&gt;" class="s3" d="m654.21 1103.84h8.46z"/>
					</g>
					<g id="&lt;Group&gt;">
						<path id="&lt;Path&gt;" class="s1" d="m660.27 1105.51h-8.46c-0.92 0-1.67-0.75-1.67-1.67 0-0.92 0.75-1.67 1.67-1.67h8.46c0.92 0 1.67 0.75 1.67 1.67 0 0.92-0.75 1.67-1.67 1.67z"/>
					</g>
				</g>
				<g id="&lt;Group&gt;">
					<g id="&lt;Group&gt;">
						<path id="&lt;Path&gt;" class="s3" d="m654.21 1115.91h8.46z"/>
					</g>
					<g id="&lt;Group&gt;">
						<path id="&lt;Path&gt;" class="s1" d="m660.27 1117.58h-8.46c-0.92 0-1.67-0.75-1.67-1.67 0-0.93 0.75-1.67 1.67-1.67h8.46c0.92 0 1.67 0.74 1.67 1.67 0 0.92-0.75 1.67-1.67 1.67z"/>
					</g>
				</g>
				<g id="&lt;Group&gt;">
					<g id="&lt;Group&gt;">
						<path id="&lt;Path&gt;" class="s3" d="m654.21 1127.97h14.42z"/>
					</g>
					<g id="&lt;Group&gt;">
						<path id="&lt;Path&gt;" class="s1" d="m666.23 1129.65h-14.42c-0.92 0-1.67-0.75-1.67-1.68 0-0.92 0.75-1.67 1.67-1.67h14.42c0.92 0 1.67 0.75 1.67 1.67 0 0.93-0.75 1.68-1.67 1.68z"/>
					</g>
				</g>
				<g id="&lt;Group&gt;">
					<g id="&lt;Group&gt;">
						<path id="&lt;Path&gt;" class="s3" d="m654.21 1140.04h8.46z"/>
					</g>
					<g id="&lt;Group&gt;">
						<path id="&lt;Path&gt;" class="s1" d="m660.27 1141.71h-8.46c-0.92 0-1.67-0.74-1.67-1.67 0-0.92 0.75-1.67 1.67-1.67h8.46c0.92 0 1.67 0.75 1.67 1.67 0 0.93-0.75 1.67-1.67 1.67z"/>
					</g>
				</g>
				<g id="&lt;Group&gt;">
					<g id="&lt;Group&gt;">
						<path id="&lt;Path&gt;" class="s3" d="m654.21 1152.11h8.46z"/>
					</g>
					<g id="&lt;Group&gt;">
						<path id="&lt;Path&gt;" class="s1" d="m660.27 1153.78h-8.46c-0.92 0-1.67-0.75-1.67-1.67 0-0.92 0.75-1.67 1.67-1.67h8.46c0.92 0 1.67 0.75 1.67 1.67 0 0.92-0.75 1.67-1.67 1.67z"/>
					</g>
				</g>
			</g>
			<g id="&lt;Group&gt;">
				<g id="&lt;Group&gt;">
					<path id="&lt;Path&gt;" class="s3" d="m488.61 1198.64h-9.56v-131.01h9.56z"/>
				</g>
				<g id="&lt;Group&gt;">
					<g id="&lt;Group&gt;">
						<path id="&lt;Compound Path&gt;" class="s1" d="m486.21 1200.31h-9.56c-0.92 0-1.67-0.75-1.67-1.67v-131.01c0-0.92 0.75-1.67 1.67-1.67h9.56c0.92 0 1.67 0.75 1.67 1.67v131.01c0 0.92-0.75 1.67-1.67 1.67zm-7.89-3.34h6.22v-127.67h-6.22z"/>
					</g>
				</g>
			</g>
			<g id="&lt;Group&gt;">
				<g id="&lt;Group&gt;">
					<path id="&lt;Path&gt;" class="s3" d="m488.61 1093.02v-9.66h221.38v9.66z"/>
				</g>
				<g id="&lt;Group&gt;">
					<g id="&lt;Group&gt;">
						<path id="&lt;Compound Path&gt;" class="s1" d="m707.59 1094.69h-221.38c-0.93 0-1.67-0.75-1.67-1.67v-9.66c0-0.92 0.74-1.67 1.67-1.67h221.38c0.92 0 1.67 0.75 1.67 1.67v9.66c0 0.92-0.75 1.67-1.67 1.67zm-219.71-3.34h218.04v-6.32h-218.04z"/>
					</g>
				</g>
			</g>
			<g id="&lt;Group&gt;">
				<g id="&lt;Group&gt;">
					<path id="&lt;Path&gt;" class="s3" d="m719.56 1198.64h-9.57v-131.01h9.57z"/>
				</g>
				<g id="&lt;Group&gt;">
					<g id="&lt;Group&gt;">
						<path id="&lt;Compound Path&gt;" class="s1" d="m717.16 1200.31h-9.57c-0.93 0-1.67-0.75-1.67-1.67v-131.01c0-0.92 0.74-1.67 1.67-1.67h9.57c0.93 0 1.67 0.75 1.67 1.67v131.01c0 0.92-0.74 1.67-1.67 1.67zm-7.9-3.34h6.23v-127.67h-6.23z"/>
					</g>
				</g>
			</g>
			<g id="&lt;Group&gt;">
				<g id="&lt;Group&gt;">
					<path id="&lt;Path&gt;" class="s2" d="m733.98 1196.27v23.27h-270.03v-23.27z"/>
				</g>
				<g id="&lt;Group&gt;">
					<g id="&lt;Group&gt;">
						<path id="&lt;Compound Path&gt;" class="s1" d="m731.58 1221.21h-270.03c-0.93 0-1.67-0.75-1.67-1.67v-23.27c0-0.92 0.74-1.67 1.67-1.67h270.03c0.92 0 1.67 0.75 1.67 1.67v23.27c0 0.92-0.75 1.67-1.67 1.67zm-268.36-3.34h266.69v-19.93h-266.69z"/>
					</g>
				</g>
			</g>
		</g>
		<g id="&lt;Group&gt;">
			<g id="&lt;Group&gt;">
				<g id="&lt;Group&gt;">
					<path id="&lt;Path&gt;" class="s3" d="m1971.8 904.64c-0.92 0-1.84-0.35-2.54-1.05-1.4-1.41-1.4-3.68 0-5.09l33.88-33.87-33.83-33.83c-1.4-1.4-1.4-3.68 0-5.08 1.4-1.41 3.68-1.41 5.09 0l36.36 36.37c0.68 0.67 1.06 1.58 1.06 2.54 0 0.95-0.38 1.87-1.06 2.54l-36.41 36.42c-0.71 0.7-1.63 1.05-2.55 1.05z"/>
				</g>
				<g id="&lt;Group&gt;">
					<path id="&lt;Path&gt;" class="s3" d="m2015.93 904.64c-0.92 0-1.84-0.35-2.54-1.05-1.41-1.41-1.41-3.68 0-5.09l33.87-33.87-33.82-33.83c-1.41-1.4-1.41-3.68 0-5.08 1.4-1.41 3.68-1.41 5.08 0l36.37 36.37c1.4 1.4 1.4 3.68 0 5.08l-36.42 36.42c-0.7 0.7-1.62 1.05-2.54 1.05z"/>
				</g>
				<g id="&lt;Group&gt;">
					<path id="&lt;Path&gt;" class="s3" d="m2060.06 904.64c-0.92 0-1.84-0.35-2.55-1.05-1.4-1.41-1.4-3.68 0-5.09l33.88-33.87-33.83-33.83c-1.4-1.4-1.4-3.68 0-5.08 1.41-1.41 3.68-1.41 5.09 0l36.37 36.37c1.4 1.4 1.4 3.68 0 5.08l-36.42 36.42c-0.7 0.7-1.62 1.05-2.54 1.05z"/>
				</g>
			</g>
		</g>
		<g id="&lt;Group&gt;">
			<g id="&lt;Group&gt;">
				<g id="&lt;Group&gt;">
					<path id="&lt;Compound Path&gt;" class="s3" d="m2789.64 1632.76h-24.86c-1.99 0-3.6-1.61-3.6-3.6 0-8.83 7.19-16.02 16.03-16.02 8.83 0 16.02 7.19 16.02 16.02 0 1.99-1.61 3.6-3.59 3.6zm-20.5-7.19h16.14c-1.38-3.09-4.48-5.24-8.07-5.24-3.59 0-6.69 2.15-8.07 5.24z"/>
				</g>
				<g id="&lt;Group&gt;">
					<path id="&lt;Compound Path&gt;" class="s3" d="m2789.64 1632.76h-24.86c-1.99 0-3.6-1.61-3.6-3.6 0-8.83 7.19-16.02 16.03-16.02 8.83 0 16.02 7.19 16.02 16.02 0 1.99-1.61 3.6-3.59 3.6zm-20.5-7.19h16.14c-1.38-3.09-4.48-5.24-8.07-5.24-3.59 0-6.69 2.15-8.07 5.24z"/>
				</g>
				<g id="&lt;Group&gt;">
					<path id="&lt;Compound Path&gt;" class="s3" d="m2807.76 1632.76h-61.1c-1.99 0-3.6-1.61-3.6-3.6 0-18.82 15.32-34.14 34.15-34.14 18.83 0 34.15 15.32 34.15 34.14 0 1.99-1.61 3.6-3.6 3.6zm-57.27-7.19h53.44c-1.77-13.17-13.08-23.36-26.72-23.36-13.65 0-24.96 10.19-26.72 23.36z"/>
				</g>
				<g id="&lt;Group&gt;">
					<path id="&lt;Compound Path&gt;" class="s3" d="m2825.58 1632.76h-96.74c-1.99 0-3.6-1.61-3.6-3.6 0-28.65 23.32-51.96 51.97-51.96 28.65 0 51.96 23.31 51.96 51.96 0 1.99-1.61 3.6-3.59 3.6zm-93-7.19h89.26c-1.84-23.02-21.15-41.18-44.63-41.18-23.48 0-42.8 18.16-44.63 41.18z"/>
				</g>
				<g id="&lt;Group&gt;">
					<path id="&lt;Compound Path&gt;" class="s3" d="m2843.07 1632.76h-131.73c-1.98 0-3.59-1.61-3.59-3.6 0-38.3 31.16-69.46 69.46-69.46 38.3 0 69.46 31.16 69.46 69.46 0 1.99-1.61 3.6-3.6 3.6zm-128.03-7.19h124.34c-1.87-32.67-29.04-58.68-62.17-58.68-33.13 0-60.3 26.01-62.17 58.68z"/>
				</g>
			</g>
		</g>
		<g id="&lt;Group&gt;">
			<g id="&lt;Group&gt;">
				<g id="&lt;Group&gt;">
					<path id="&lt;Compound Path&gt;" class="s3" d="m1513.77 1444.1c-8.84 0-16.03-7.19-16.03-16.03 0-1.99 1.61-3.6 3.6-3.6h24.86c1.98 0 3.59 1.61 3.59 3.6 0 8.84-7.19 16.03-16.02 16.03zm-8.07-12.44c1.38 3.09 4.47 5.25 8.07 5.25 3.59 0 6.69-2.16 8.07-5.25z"/>
				</g>
				<g id="&lt;Group&gt;">
					<path id="&lt;Compound Path&gt;" class="s3" d="m1513.77 1444.1c-8.84 0-16.03-7.19-16.03-16.03 0-1.99 1.61-3.6 3.6-3.6h24.86c1.98 0 3.59 1.61 3.59 3.6 0 8.84-7.19 16.03-16.02 16.03zm-8.07-12.44c1.38 3.09 4.47 5.25 8.07 5.25 3.59 0 6.69-2.16 8.07-5.25z"/>
				</g>
				<g id="&lt;Group&gt;">
					<path id="&lt;Compound Path&gt;" class="s3" d="m1513.77 1462.21c-18.83 0-34.15-15.31-34.15-34.14 0-1.99 1.61-3.6 3.59-3.6h61.11c1.98 0 3.59 1.61 3.59 3.6 0 18.83-15.31 34.14-34.14 34.14zm-26.72-30.55c1.76 13.17 13.07 23.37 26.72 23.37 13.64 0 24.95-10.2 26.71-23.37z"/>
				</g>
				<g id="&lt;Group&gt;">
					<path id="&lt;Compound Path&gt;" class="s3" d="m1513.77 1480.03c-28.66 0-51.97-23.31-51.97-51.96 0-1.99 1.61-3.6 3.6-3.6h96.74c1.98 0 3.59 1.61 3.59 3.6 0 28.65-23.31 51.96-51.96 51.96zm-44.63-48.37c1.83 23.02 21.15 41.18 44.63 41.18 23.47 0 42.79-18.16 44.63-41.18z"/>
				</g>
				<g id="&lt;Group&gt;">
					<path id="&lt;Compound Path&gt;" class="s3" d="m1513.77 1497.53c-38.3 0-69.46-31.16-69.46-69.46 0-1.99 1.61-3.6 3.59-3.6h131.73c1.99 0 3.6 1.61 3.6 3.6 0 38.3-31.16 69.46-69.46 69.46zm-62.17-65.87c1.87 32.67 29.04 58.68 62.17 58.68 33.13 0 60.29-26.01 62.16-58.68z"/>
				</g>
			</g>
		</g>
		<g id="&lt;Group&gt;">
			<g id="&lt;Group&gt;">
				<g id="&lt;Group&gt;">
					<path id="&lt;Path&gt;" class="s3" d="m2011.03 1838.64c-1.13 0-2.23-0.53-2.94-1.51l-50.49-70.91c-1.15-1.62-0.77-3.86 0.84-5.01 1.62-1.15 3.87-0.78 5.02 0.84l50.49 70.91c1.15 1.61 0.77 3.86-0.84 5.01-0.64 0.45-1.36 0.67-2.08 0.67z"/>
				</g>
				<g id="&lt;Group&gt;">
					<path id="&lt;Path&gt;" class="s3" d="m2043.68 1838.64c-1.12 0-2.23-0.53-2.93-1.51l-50.49-70.91c-1.16-1.62-0.78-3.86 0.84-5.01 1.62-1.15 3.86-0.78 5.01 0.84l50.5 70.91c1.15 1.61 0.77 3.86-0.85 5.01-0.63 0.45-1.36 0.67-2.08 0.67z"/>
				</g>
				<g id="&lt;Group&gt;">
					<path id="&lt;Path&gt;" class="s3" d="m2076.34 1838.64c-1.13 0-2.23-0.53-2.94-1.51l-50.49-70.91c-1.15-1.62-0.77-3.86 0.85-5.01 1.61-1.15 3.86-0.78 5.01 0.84l50.49 70.91c1.15 1.61 0.78 3.86-0.84 5.01-0.63 0.45-1.36 0.67-2.08 0.67z"/>
				</g>
				<g id="&lt;Group&gt;">
					<path id="&lt;Path&gt;" class="s3" d="m2108.99 1838.64c-1.12 0-2.23-0.53-2.93-1.51l-50.49-70.91c-1.15-1.62-0.78-3.86 0.84-5.01 1.62-1.15 3.86-0.78 5.02 0.84l50.49 70.91c1.15 1.61 0.77 3.86-0.85 5.01-0.63 0.45-1.36 0.67-2.08 0.67z"/>
				</g>
				<g id="&lt;Group&gt;">
					<path id="&lt;Path&gt;" class="s3" d="m2141.65 1838.64c-1.13 0-2.23-0.53-2.93-1.51l-50.5-70.91c-1.15-1.62-0.77-3.86 0.85-5.01 1.62-1.15 3.86-0.78 5.01 0.84l50.49 70.91c1.15 1.61 0.78 3.86-0.84 5.01-0.63 0.45-1.36 0.67-2.08 0.67z"/>
				</g>
				<g id="&lt;Group&gt;">
					<path id="&lt;Path&gt;" class="s3" d="m2174.3 1838.64c-1.12 0-2.23-0.53-2.93-1.51l-50.49-70.91c-1.15-1.62-0.78-3.86 0.84-5.01 1.62-1.15 3.86-0.78 5.02 0.84l50.49 70.91c1.15 1.61 0.77 3.86-0.84 5.01-0.64 0.45-1.37 0.67-2.09 0.67z"/>
				</g>
				<g id="&lt;Group&gt;">
					<path id="&lt;Path&gt;" class="s3" d="m2206.96 1838.64c-1.12 0-2.23-0.53-2.93-1.51l-50.5-70.91c-1.15-1.62-0.77-3.86 0.85-5.01 1.62-1.15 3.86-0.78 5.01 0.84l50.49 70.91c1.16 1.61 0.78 3.86-0.84 5.01-0.63 0.45-1.36 0.67-2.08 0.67z"/>
				</g>
				<g id="&lt;Group&gt;">
					<path id="&lt;Path&gt;" class="s3" d="m2239.61 1838.64c-1.12 0-2.23-0.53-2.93-1.51l-50.49-70.91c-1.15-1.62-0.77-3.86 0.84-5.01 1.62-1.15 3.87-0.78 5.02 0.84l50.49 70.91c1.15 1.61 0.77 3.86-0.84 5.01-0.64 0.45-1.36 0.67-2.09 0.67z"/>
				</g>
			</g>
		</g>
		<g id="&lt;Group&gt;">
			<g id="&lt;Group&gt;">
				<g id="&lt;Group&gt;">
					<path id="&lt;Compound Path&gt;" class="s3" d="m2136.56 1529.83h-118.39c-1.99 0-3.6-1.61-3.6-3.59v-118.39c0-1.99 1.61-3.6 3.6-3.6h118.39c1.98 0 3.59 1.61 3.59 3.6v118.39c0 1.98-1.61 3.59-3.59 3.59zm-114.8-7.19h111.2v-111.2h-111.2z"/>
				</g>
				<g id="&lt;Group&gt;">
					<path id="&lt;Compound Path&gt;" class="s3" d="m2112.13 1547.33h-118.39c-1.99 0-3.6-1.61-3.6-3.6v-118.39c0-1.98 1.61-3.59 3.6-3.59h118.39c1.98 0 3.59 1.61 3.59 3.59v118.39c0 1.99-1.61 3.6-3.59 3.6zm-114.79-7.19h111.19v-111.2h-111.19z"/>
				</g>
			</g>
		</g>
		<g id="&lt;Group&gt;">
			<g id="&lt;Group&gt;">
				<g id="&lt;Group&gt;">
					<g id="&lt;Group&gt;">
						<path id="&lt;Compound Path&gt;" class="s3" d="m3059.9 1195.76c-38.3 0-69.46-31.16-69.46-69.46 0-38.3 31.16-69.45 69.46-69.45 38.3 0 69.46 31.15 69.46 69.45 0 38.3-31.16 69.46-69.46 69.46zm0-131.72c-34.33 0-62.26 27.93-62.26 62.26 0 34.34 27.93 62.27 62.26 62.27 34.34 0 62.27-27.93 62.27-62.27 0-34.33-27.93-62.26-62.27-62.26z"/>
					</g>
				</g>
				<g id="&lt;Group&gt;">
					<path id="&lt;Path&gt;" class="s3" d="m3105.71 1082.57h-91.61c-1.99 0-3.6-1.61-3.6-3.59 0-1.99 1.61-3.6 3.6-3.6h91.61c1.98 0 3.59 1.61 3.59 3.6 0 1.98-1.61 3.59-3.59 3.59z"/>
				</g>
				<g id="&lt;Group&gt;">
					<path id="&lt;Path&gt;" class="s3" d="m3121.04 1105.35h-122.28c-1.98 0-3.59-1.61-3.59-3.59 0-1.99 1.61-3.6 3.59-3.6h122.28c1.99 0 3.6 1.61 3.6 3.6 0 1.98-1.61 3.59-3.6 3.59z"/>
				</g>
				<g id="&lt;Group&gt;">
					<path id="&lt;Path&gt;" class="s3" d="m3125.74 1128.14h-131.68c-1.98 0-3.59-1.61-3.59-3.6 0-1.98 1.61-3.59 3.59-3.59h131.68c1.99 0 3.6 1.61 3.6 3.59 0 1.99-1.61 3.6-3.6 3.6z"/>
				</g>
				<g id="&lt;Group&gt;">
					<path id="&lt;Path&gt;" class="s3" d="m3122.34 1150.92h-124.87c-1.99 0-3.6-1.61-3.6-3.59 0-1.99 1.61-3.6 3.6-3.6h124.87c1.99 0 3.6 1.61 3.6 3.6 0 1.98-1.61 3.59-3.6 3.59z"/>
				</g>
				<g id="&lt;Group&gt;">
					<path id="&lt;Path&gt;" class="s3" d="m3109.09 1173.7h-98.37c-1.98 0-3.6-1.61-3.6-3.59 0-1.99 1.62-3.6 3.6-3.6h98.37c1.98 0 3.59 1.61 3.59 3.6 0 1.98-1.61 3.59-3.59 3.59z"/>
				</g>
			</g>
		</g>
		<g id="&lt;Group&gt;">
			<g id="&lt;Group&gt;">
				<g id="&lt;Group&gt;">
					<path id="&lt;Path&gt;" class="s3" d="m3421.79 428.96c-0.92 0-1.84-0.35-2.55-1.05l-25.53-25.54c-1.4-1.4-1.4-3.68 0-5.08 1.4-1.4 3.68-1.4 5.08 0l25.54 25.53c1.4 1.41 1.4 3.68 0 5.09-0.7 0.7-1.62 1.05-2.54 1.05z"/>
				</g>
				<g id="&lt;Group&gt;">
					<path id="&lt;Path&gt;" class="s3" d="m3490.66 497.83c-0.92 0-1.84-0.35-2.55-1.05l-25.53-25.54c-1.4-1.4-1.4-3.68 0-5.08 1.4-1.4 3.68-1.4 5.08 0l25.54 25.53c1.4 1.41 1.4 3.68 0 5.09-0.7 0.7-1.62 1.05-2.54 1.05z"/>
				</g>
				<g id="&lt;Group&gt;">
					<path id="&lt;Path&gt;" class="s3" d="m3465.12 428.96c-0.92 0-1.84-0.35-2.54-1.05-1.4-1.41-1.4-3.68 0-5.09l25.53-25.53c1.41-1.4 3.69-1.4 5.09 0 1.4 1.4 1.4 3.68 0 5.08l-25.54 25.54c-0.7 0.7-1.62 1.05-2.54 1.05z"/>
				</g>
				<g id="&lt;Group&gt;">
					<path id="&lt;Path&gt;" class="s3" d="m3396.25 497.83c-0.92 0-1.84-0.35-2.54-1.05-1.4-1.41-1.4-3.68 0-5.09l25.53-25.53c1.41-1.4 3.68-1.4 5.09 0 1.4 1.4 1.4 3.68 0 5.08l-25.54 25.54c-0.7 0.7-1.62 1.05-2.54 1.05z"/>
				</g>
			</g>
		</g>
		<g id="&lt;Group&gt;">
			<g id="&lt;Group&gt;">
				<g id="&lt;Group&gt;">
					<path id="&lt;Path&gt;" class="s3" d="m574.37 812.75c-0.72 0-1.45-0.22-2.09-0.67l-29.36-21.02c-1.62-1.15-1.99-3.4-0.83-5.01 1.15-1.62 3.4-1.99 5.01-0.84l29.37 21.02c1.61 1.15 1.98 3.4 0.83 5.01-0.7 0.98-1.81 1.51-2.93 1.51z"/>
				</g>
				<g id="&lt;Group&gt;">
					<path id="&lt;Path&gt;" class="s3" d="m653.58 869.43c-0.72 0-1.46-0.22-2.09-0.67l-29.37-21.02c-1.61-1.15-1.98-3.4-0.83-5.01 1.16-1.62 3.4-1.99 5.02-0.84l29.37 21.02c1.61 1.15 1.98 3.4 0.83 5.01-0.7 0.98-1.81 1.51-2.93 1.51z"/>
				</g>
				<g id="&lt;Group&gt;">
					<path id="&lt;Path&gt;" class="s3" d="m624.22 812.75c-1.12 0-2.22-0.53-2.93-1.51-1.15-1.61-0.78-3.86 0.83-5.01l29.37-21.02c1.62-1.15 3.86-0.78 5.02 0.84 1.15 1.61 0.78 3.86-0.83 5.01l-29.37 21.02c-0.64 0.45-1.37 0.67-2.09 0.67z"/>
				</g>
				<g id="&lt;Group&gt;">
					<path id="&lt;Path&gt;" class="s3" d="m545.01 869.43c-1.12 0-2.22-0.53-2.92-1.51-1.16-1.61-0.79-3.86 0.83-5.01l29.36-21.02c1.62-1.15 3.86-0.78 5.02 0.84 1.15 1.61 0.78 3.86-0.83 5.01l-29.37 21.02c-0.63 0.45-1.36 0.67-2.09 0.67z"/>
				</g>
				<g id="&lt;Group&gt;">
					<path id="&lt;Path&gt;" class="s3" d="m599.3 799.94c-1.99 0-3.6-1.61-3.6-3.6v-36.11c0-1.99 1.61-3.6 3.6-3.6 1.98 0 3.59 1.61 3.59 3.6v36.11c0 1.99-1.61 3.6-3.59 3.6z"/>
				</g>
				<g id="&lt;Group&gt;">
					<path id="&lt;Path&gt;" class="s3" d="m599.3 897.33c-1.99 0-3.6-1.61-3.6-3.59v-36.11c0-1.99 1.61-3.6 3.6-3.6 1.98 0 3.59 1.61 3.59 3.6v36.11c0 1.98-1.61 3.59-3.59 3.59z"/>
				</g>
			</g>
		</g>
		<g id="&lt;Group&gt;">
			<g id="&lt;Group&gt;">
				<g id="&lt;Group&gt;">
					<path id="&lt;Path&gt;" class="s3" d="m749.75 1941.34c-1.6 0-2.9-1.3-2.9-2.9v-83.47c0-1.6 1.3-2.9 2.9-2.9 1.6 0 2.9 1.3 2.9 2.9v83.47c0 1.6-1.3 2.9-2.9 2.9z"/>
				</g>
			</g>
			<g id="&lt;Group&gt;">
				<g id="&lt;Group&gt;">
					<path id="&lt;Path&gt;" class="s3" d="m791.48 1899.61h-83.46c-1.61 0-2.9-1.3-2.9-2.91 0-1.6 1.29-2.9 2.9-2.9h83.46c1.6 0 2.9 1.3 2.9 2.9 0 1.61-1.3 2.91-2.9 2.91z"/>
				</g>
			</g>
		</g>
		<g id="&lt;Group&gt;">
			<g id="&lt;Group&gt;">
				<path id="&lt;Path&gt;" class="s3" d="m1429.28 346.14q-2.66 0-5.26-0.34c-8.45-1.11-14.57-4.67-19.97-7.81-5.84-3.4-10.86-6.33-18.07-6.21-8.13 0.13-16.45 4.1-24.73 11.79-1.18 1.09-3.01 1.02-4.1-0.15-1.09-1.18-1.03-3.01 0.15-4.1 9.36-8.69 18.98-13.18 28.58-13.34 8.81-0.15 15.05 3.48 21.09 6.99 5.16 3.01 10.51 6.12 17.81 7.07 10.05 1.32 21.08-1.86 32.77-9.45 1.34-0.87 3.14-0.49 4.01 0.86 0.87 1.34 0.49 3.14-0.85 4.01-10.93 7.1-21.48 10.68-31.43 10.68z"/>
			</g>
		</g>
		<g id="&lt;Group&gt;">
			<g id="&lt;Group&gt;">
				<g id="&lt;Group&gt;">
					<path id="&lt;Path&gt;" class="s3" d="m2476.19 925.37c-1.61 0-2.9-1.29-2.9-2.9v-83.46c0-1.6 1.29-2.9 2.9-2.9 1.6 0 2.9 1.3 2.9 2.9v83.46c0 1.61-1.3 2.9-2.9 2.9z"/>
				</g>
			</g>
			<g id="&lt;Group&gt;">
				<g id="&lt;Group&gt;">
					<path id="&lt;Path&gt;" class="s3" d="m2517.92 883.64h-83.47c-1.6 0-2.9-1.3-2.9-2.9 0-1.6 1.3-2.9 2.9-2.9h83.47c1.6 0 2.9 1.3 2.9 2.9 0 1.6-1.3 2.9-2.9 2.9z"/>
				</g>
			</g>
		</g>
		<g id="&lt;Group&gt;">
			<g id="&lt;Group&gt;">
				<path id="&lt;Path&gt;" class="s3" d="m2446.73 1999.39c-0.74 0-1.48-0.28-2.05-0.85l-23.96-23.96c-1.14-1.14-1.14-2.97 0-4.11 1.13-1.13 2.97-1.13 4.1 0l21.91 21.92 53.33-53.33c1.13-1.13 2.97-1.13 4.1 0 1.13 1.14 1.13 2.97 0 4.11l-55.38 55.37c-0.56 0.57-1.31 0.85-2.05 0.85z"/>
			</g>
		</g>
		<g id="&lt;Group&gt;">
			<g id="&lt;Group&gt;">
				<g id="&lt;Group&gt;">
					<path id="&lt;Path&gt;" class="s3" d="m1508.97 913.82q-0.01 0.68-0.03 1.35h-76.7q-0.02-0.67-0.03-1.35c0-21.19 17.19-38.37 38.38-38.37q4.35 0.01 8.42 0.93c17.14 3.84 29.96 19.14 29.96 37.44z"/>
				</g>
			</g>
			<g id="&lt;Group&gt;">
				<g id="&lt;Group&gt;">
					<path id="&lt;Path&gt;" class="s3" d="m1583.5 894.28c0 7.41-1.49 14.47-4.2 20.89h-99.14c-2.71-6.42-4.21-13.48-4.21-20.89 0-6.27 1.08-12.3 3.06-17.9 7.37-20.9 27.3-35.87 50.72-35.87 17.75 0 33.48 8.6 43.27 21.85 6.61 8.93 10.5 19.97 10.5 31.92z"/>
				</g>
			</g>
			<g id="&lt;Group&gt;">
				<g id="&lt;Group&gt;">
					<path id="&lt;Path&gt;" class="s3" d="m1641.79 915.17h-109.32c0-25.3 17.19-46.59 40.53-52.81 4.51-1.21 9.24-1.85 14.13-1.85 30.19 0 54.66 24.48 54.66 54.66z"/>
				</g>
			</g>
		</g>
		<g id="&lt;Group&gt;">
			<g id="&lt;Group&gt;">
				<g id="&lt;Group&gt;">
					<path id="&lt;Path&gt;" class="s3" d="m2641.97 399.82h-93.51c-1.6 0-2.9-1.3-2.9-2.91 0-1.6 1.3-2.9 2.9-2.9h93.51c1.6 0 2.9 1.3 2.9 2.9 0 1.61-1.3 2.91-2.9 2.91z"/>
				</g>
			</g>
			<g id="&lt;Group&gt;">
				<g id="&lt;Group&gt;">
					<path id="&lt;Path&gt;" class="s3" d="m2641.97 430.67c-0.58 0-1.16-0.17-1.66-0.53-1.31-0.92-1.63-2.73-0.72-4.04l20.4-29.13-20.34-27.25c-0.96-1.28-0.7-3.1 0.59-4.06 1.28-0.96 3.1-0.7 4.06 0.59l21.59 28.93c0.75 1 0.77 2.37 0.05 3.4l-21.59 30.85c-0.57 0.8-1.47 1.24-2.38 1.24z"/>
				</g>
			</g>
		</g>
		<g id="&lt;Group&gt;">
			<g id="&lt;Group&gt;">
				<path id="&lt;Path&gt;" class="s3" d="m1250.03 2044.41c-0.75 0-1.49-0.29-2.06-0.85l-23.71-23.72-23.03 23.04c-1.14 1.13-2.97 1.13-4.11 0l-27.08-27.09-26.82 26.81c-1.13 1.14-2.97 1.14-4.1 0-1.13-1.13-1.13-2.97 0-4.1l28.87-28.87c1.13-1.13 2.97-1.13 4.1 0l27.09 27.09 23.03-23.03c1.13-1.14 2.97-1.14 4.1 0l23.72 23.71 25.45-25.45c1.13-1.13 2.97-1.13 4.1 0l26.9 26.9c1.13 1.13 1.13 2.97 0 4.1-1.13 1.13-2.97 1.13-4.1 0l-24.85-24.85-25.45 25.46c-0.57 0.56-1.31 0.85-2.05 0.85z"/>
			</g>
		</g>
		<g id="&lt;Group&gt;">
			<g id="&lt;Group&gt;">
				<g id="&lt;Group&gt;">
					<path id="&lt;Compound Path&gt;" class="s3" d="m3388.4 1817.31c-0.74 0-1.49-0.29-2.05-0.85l-34.64-34.64c-1.13-1.13-1.13-2.97 0-4.1l34.64-34.63c0.54-0.55 1.28-0.85 2.05-0.85 0.77 0 1.51 0.3 2.05 0.85l34.63 34.63c1.14 1.13 1.14 2.97 0 4.1l-34.63 34.64c-0.56 0.56-1.31 0.85-2.05 0.85zm-30.53-37.54l30.53 30.53 30.53-30.53-30.53-30.53z"/>
				</g>
			</g>
		</g>
		<g id="&lt;Group&gt;">
			<g id="&lt;Group&gt;">
				<g id="&lt;Group&gt;">
					<g id="&lt;Group&gt;">
						<path id="&lt;Compound Path&gt;" class="s3" d="m890.4 1258.3c-27.78 0-50.39-22.61-50.39-50.39 0-27.79 22.61-50.39 50.39-50.39 27.79 0 50.39 22.6 50.39 50.39 0 27.78-22.6 50.39-50.39 50.39zm0-94.98c-24.58 0-44.59 20-44.59 44.59 0 24.58 20.01 44.58 44.59 44.58 24.59 0 44.59-20 44.59-44.58 0-24.59-20-44.59-44.59-44.59z"/>
					</g>
				</g>
			</g>
			<g id="&lt;Group&gt;">
				<g id="&lt;Group&gt;">
					<path id="&lt;Path&gt;" class="s3" d="m910.19 1207.91c0 10.93-8.86 19.79-19.79 19.79-10.93 0-19.79-8.86-19.79-19.79 0-10.93 8.86-19.8 19.79-19.8 10.93 0 19.79 8.87 19.79 19.8z"/>
				</g>
			</g>
		</g>
		<g id="&lt;Group&gt;">
			<g id="&lt;Group&gt;">
				<g id="&lt;Group&gt;">
					<path id="&lt;Path&gt;" class="s3" d="m1028.08 822.72c-0.77 0-1.51-0.31-2.06-0.85l-23.96-23.97c-1.13-1.13-1.13-2.96 0-4.1 1.13-1.13 2.97-1.13 4.1 0l21.92 21.91 53.32-53.32c1.13-1.13 2.97-1.13 4.1 0 1.14 1.13 1.14 2.97 0 4.1l-55.37 55.38c-0.55 0.54-1.28 0.85-2.05 0.85z"/>
				</g>
			</g>
			<g id="&lt;Group&gt;">
				<g id="&lt;Group&gt;">
					<g id="&lt;Group&gt;">
						<g id="&lt;Group&gt;">
							<path id="&lt;Compound Path&gt;" class="s3" d="m1043.83 859.89c-37.37 0-67.77-30.4-67.77-67.76 0-37.36 30.4-67.76 67.77-67.76 37.36 0 67.76 30.4 67.76 67.76 0 37.36-30.4 67.76-67.76 67.76zm0-129.72c-34.17 0-61.96 27.8-61.96 61.96 0 34.16 27.79 61.96 61.96 61.96 34.16 0 61.95-27.8 61.95-61.96 0-34.16-27.79-61.96-61.95-61.96z"/>
						</g>
					</g>
				</g>
			</g>
		</g>
		<g id="&lt;Group&gt;">
			<path id="&lt;Compound Path&gt;" class="s3" d="m2956 694.4h-32v-7.2h32zm-64 0h-32v-7.2h32zm-64 0h-32v-7.2h32zm-64 0h-32v-7.2h32zm-64 0h-32v-7.2h32zm281.6-13.6h-7.2v-32h7.2zm0-64h-7.2v-32h7.2zm0-64h-7.2v-8.8h7.2z"/>
		</g>
		<g id="&lt;Group&gt;">
			<path id="&lt;Compound Path&gt;" class="s3" d="m2844 936h-7.2v-32h7.2zm0-64h-7.2v-32h7.2zm0-64h-7.2v-32h7.2zm0-64h-7.2v-32h7.2z"/>
		</g>
		<g id="&lt;Group&gt;">
			<path id="&lt;Compound Path&gt;" class="s3" d="m2929.6 1749.6h-7.2v-32h7.2zm0-64h-7.2v-32h7.2zm0-64h-7.2v-32h7.2zm0-64h-7.2v-32h7.2zm0-64h-7.2v-20.8h-4v-7.2h11.2zm-43.2-20.8h-32v-7.2h32zm-64 0h-32v-7.2h32zm-64 0h-32v-7.2h32zm-64 0h-30.4v-8.8h7.2v1.6h23.2zm-23.2-40.8h-7.2v-32h7.2zm0-64h-7.2v-32h7.2z"/>
		</g>
		<g id="&lt;Group&gt;">
			<path id="&lt;Compound Path&gt;" class="s3" d="m3360 1557.6h-32v-7.2h32zm-64 0h-32v-7.2h32zm-64 0h-32v-7.2h32zm-64 0h-32v-7.2h32zm-64 0h-32v-7.2h32zm-64 0h-32v-7.2h32zm-64 0h-32v-7.2h32zm416-7.2h-7.2v-32h7.2zm0-64h-7.2v-32h7.2zm0-64h-7.2v-32h7.2zm0-64h-7.2v-32h7.2zm0-64h-7.2v-32h7.2z"/>
		</g>
		<g id="&lt;Group&gt;">
			<path id="&lt;Compound Path&gt;" class="s3" d="m856.8 1671.2h-7.2v-7.2h7.2zm-39.2 0h-32v-7.2h32zm-64 0h-32v-7.2h32zm-64 0h-32v-7.2h32zm-64 0h-6.4v-32.8h7.2v29.2h-0.8zm0.8-64.8h-7.2v-32h7.2zm0-64h-7.2v-32h7.2zm0-64h-7.2v-32h7.2zm0-64h-7.2v-32h7.2zm0-64h-7.2v-32h7.2zm0-64h-7.2v-32h7.2z"/>
		</g>
		<g id="&lt;Group&gt;">
			<path id="&lt;Compound Path&gt;" class="s3" d="m1779.2 944h-7.2v-8.8h7.2zm0-40.8h-7.2v-32h7.2zm0-64h-7.2v-32h7.2zm0-64h-7.2v-32h7.2zm0-64h-7.2v-32h7.2zm-18.4-45.6h-32v-7.2h32zm-64 0h-32v-7.2h32zm-64 0h-32v-7.2h32z"/>
		</g>
		<g id="&lt;Group&gt;">
			<path id="&lt;Compound Path&gt;" class="s3" d="m1227.2 925.6h-7.2v-32h7.2zm0-64h-7.2v-32h7.2zm0-64h-7.2v-32h7.2zm0-64h-7.2v-32h7.2zm0-64h-7.2v-32h7.2zm0-64h-7.2v-32h7.2zm0-64h-7.2v-32h7.2zm0-64h-7.2v-32h7.2zm623.2-41.6h-32v-7.2h32zm-64 0h-32v-7.2h32zm-64 0h-32v-7.2h32zm-64 0h-32v-7.2h32zm-64 0h-32v-7.2h32zm-64 0h-32v-7.2h32zm-64 0h-32v-7.2h32zm-64 0h-32v-7.2h32zm-64 0h-32v-7.2h32zm-64 0h-32v-7.2h32z"/>
		</g>
		<g id="&lt;Group&gt;">
			<path id="&lt;Compound Path&gt;" class="s3" d="m1195.2 545.6h-32v-7.2h32zm-64 0h-32v-7.2h32zm-64 0h-32v-7.2h32zm-64 0h-32v-7.2h32z"/>
		</g>
		<g id="&lt;Group&gt;">
			<path id="&lt;Compound Path&gt;" class="s3" d="m1064 1024h-32v-7.2h32zm-64 0h-32v-7.2h32zm-64 0h-32v-7.2h32zm-64 0h-32v-7.2h32zm-54.4-9.6h-7.2v-32h7.2zm0-64h-7.2v-32h7.2zm0-64h-7.2v-32h7.2zm0-64h-7.2v-32h7.2zm0-64h-7.2v-32h7.2z"/>
		</g>
		<g id="&lt;Group&gt;">
			<path id="&lt;Compound Path&gt;" class="s3" d="m2297.6 911.2h-7.2v-32h7.2zm0-64h-7.2v-32h7.2zm0-64h-7.2v-32h7.2zm0-64h-7.2v-32h7.2zm0-64h-7.2v-18.4h20.8v7.2h-13.6zm141.6-11.2h-32v-7.2h32zm-64 0h-32v-7.2h32z"/>
		</g>
		<g id="&lt;Group&gt;">
			<path id="&lt;Compound Path&gt;" class="s3" d="m1226.4 1421.6h-27.2v-7.2h20v-4.8h7.2zm-59.2 0h-32v-7.2h32zm-64 0h-32v-7.2h32zm-64 0h-32v-7.2h32zm-64 0h-32v-7.2h32zm-64 0h-32v-7.2h32zm-64 0h-32v-7.2h32zm-64 0h-32v-7.2h32zm-64 0h-32v-7.2h32zm-64 0h-32v-7.2h32zm571.2-44h-7.2v-32h7.2z"/>
		</g>
		<g id="&lt;Group&gt;">
			<path id="&lt;Compound Path&gt;" class="s3" d="m1600.8 1910.4h-32v-7.2h32zm-64 0h-32v-7.2h32zm-64 0h-32v-7.2h32zm-60-4h-7.2v-32h7.2zm0-64h-7.2v-32h7.2zm0-64h-7.2v-32h7.2zm0-64h-7.2v-32h7.2zm0-64h-7.2v-33.6h5.6v3.6h1.6zm880.8-26.4h-18.4v-7.2h18.4zm-50.4 0h-32v-7.2h32zm-64 0h-32v-7.2h32zm-64 0h-32v-7.2h32zm-64 0h-32v-7.2h32zm-64 0h-32v-7.2h32zm-64 0h-32v-7.2h32zm-64 0h-32v-7.2h32zm-64 0h-32v-7.2h32zm-64 0h-32v-7.2h32zm-64 0h-32v-7.2h32zm-64 0h-32v-7.2h32zm-64 0h-32v-7.2h32zm-64 0h-32v-7.2h32z"/>
		</g>
		<g id="&lt;Group&gt;">
			<path id="&lt;Compound Path&gt;" class="s3" d="m1868 1587.2h-7.2v-32h7.2zm0-64h-7.2v-32h7.2zm0-64h-7.2v-32h7.2zm0-64h-7.2v-32h7.2z"/>
		</g>
	</g>
</svg>